<?xml version="1.0" encoding="UTF-8"?>
<svg version="1.1" xmlns="http://www.w3.org/2000/svg" width="537" height="557">
<path d="M0 0 C177.21 0 354.42 0 537 0 C537 183.81 537 367.62 537 557 C359.79 557 182.58 557 0 557 C0 373.19 0 189.38 0 0 Z " fill="#12191C" transform="translate(0,0)"/>
<path d="M0 0 C177.21 0 354.42 0 537 0 C537 183.81 537 367.62 537 557 C359.79 557 182.58 557 0 557 C0 373.19 0 189.38 0 0 Z M94.1875 21.75 C93.30860107 22.09289063 92.42970215 22.43578125 91.52416992 22.7890625 C80.07227224 27.40223161 70.36582166 33.98089779 61 42 C60.19046875 42.67546875 59.3809375 43.3509375 58.546875 44.046875 C41.21508336 58.9805571 30.60918501 77.27538528 24 99 C23.63210767 100.19837148 23.26421534 101.39674295 22.88517475 102.63142872 C18.88220466 117.14807991 19.44761222 132.04535898 19.52107847 146.97029746 C19.53646649 151.00492276 19.52839802 155.03951554 19.52339172 159.07415771 C19.51720376 166.95088513 19.53206095 174.82743502 19.55411734 182.70412841 C19.57893288 191.8861997 19.58172707 201.06823957 19.58352111 210.25033943 C19.58738703 226.63088001 19.60978591 243.01134113 19.64331055 259.3918457 C19.67579117 275.27531264 19.69700339 291.15873762 19.70483398 307.04223633 C19.70531948 308.02224502 19.70580497 309.00225371 19.70630517 310.01195963 C19.70823403 313.95158061 19.71014617 317.8912016 19.71202127 321.8308226 C19.71955354 336.9931934 19.73517596 352.15555736 19.75251788 367.31791976 C19.75774972 371.89343987 19.76268305 376.46895985 19.7668798 381.04448104 C19.77580194 390.65597616 19.78759784 400.26745128 19.80844583 409.8789288 C19.81703168 413.85147052 19.82412425 417.82399849 19.82696152 421.79654884 C19.82963532 425.43353009 19.83694376 429.07047165 19.84795199 432.70743696 C19.8526604 434.64396864 19.85255473 436.58051019 19.85227031 438.51704758 C19.8863374 447.35004849 20.47589966 453.8240872 24 462 C24.28425927 463.33342822 24.54157725 464.67277418 24.77734375 466.015625 C26.03386192 471.86746071 28.51314106 477.01755564 31.125 482.375 C31.6185498 483.39360107 32.11209961 484.41220215 32.62060547 485.46166992 C36.14342016 492.58562218 39.80440533 498.95062024 45 505 C45.69480469 505.84175781 46.38960937 506.68351562 47.10546875 507.55078125 C52.47782336 513.81694353 58.44665334 519.00295598 65 524 C65.76699219 524.59425781 66.53398438 525.18851563 67.32421875 525.80078125 C87.27662637 540.53643034 109.64197729 547.36607465 134.37818909 547.24723816 C136.14011948 547.25085978 136.14011948 547.25085978 137.93764442 547.25455457 C141.15741439 547.25917382 144.37702444 547.2549591 147.59678257 547.24679029 C151.0848908 547.24015404 154.57298608 547.24517454 158.06109619 547.24867249 C164.87799988 547.25369074 171.6948547 547.24810291 178.51175231 547.23882218 C186.46248161 547.22839058 194.41320061 547.22850963 202.36393546 547.22899476 C216.5563546 547.22949441 230.74875113 547.22036026 244.94116211 547.20581055 C258.69051526 547.19172248 272.43984852 547.18463999 286.18920898 547.18530273 C287.45981022 547.18536267 287.45981022 547.18536267 288.75608016 547.18542381 C289.6017313 547.18546417 290.44738243 547.18550452 291.31865937 547.1855461 C307.00532285 547.18623723 322.69197795 547.18033888 338.3786387 547.17139288 C343.91154537 547.16838589 349.44445048 547.16731444 354.97735786 547.16686058 C361.725707 547.16617603 368.47404198 547.16167781 375.22238512 547.15252777 C378.66084443 547.14793435 382.09928575 547.14485514 385.53774834 547.14612198 C389.27478557 547.14661542 393.01176536 547.14093017 396.74879456 547.13371277 C397.82167506 547.13526137 398.89455557 547.13680997 399.99994761 547.1384055 C410.56088132 547.10487574 420.64092218 546.58305444 430.75 543.375 C431.60489014 543.10848633 432.45978027 542.84197266 433.34057617 542.56738281 C462.30063539 533.28852488 484.83235511 516.17917884 499.83056641 489.29736328 C511.39434037 466.5802207 512.60527098 442.72821046 512.50823963 417.76041675 C512.49699161 413.72086875 512.50911728 409.68137492 512.51808167 405.64183044 C512.5319218 397.75702363 512.52452753 389.87237837 512.50940608 381.98757944 C512.49243783 372.78529881 512.49576965 363.58305722 512.49950016 354.38076577 C512.5053615 337.95286742 512.4912735 321.52504603 512.46655273 305.09716797 C512.4426214 289.19186522 512.43555681 273.28666518 512.44604492 257.38134766 C512.45747663 240.01421023 512.45935762 222.64712016 512.44494683 205.27998328 C512.44342115 203.4252801 512.44190079 201.57057691 512.44038582 199.71587372 C512.439628 198.80357615 512.43887019 197.89127858 512.43808941 196.95133562 C512.4333652 190.5510892 512.43518462 184.15086406 512.43945122 177.75061798 C512.44439825 169.94411161 512.43830282 162.13770195 512.41855692 154.33121762 C512.40874523 150.35547697 512.40351293 146.37988301 512.41144943 142.40413475 C512.48050049 103.62894898 504.59315708 74.29073689 477 46 C470.04942405 39.02742856 462.53911068 33.86818361 454 29 C453.36271973 28.61102539 452.72543945 28.22205078 452.06884766 27.82128906 C445.5414899 23.95910676 438.68889783 21.59884781 431.5 19.25 C430.32824219 18.85167969 429.15648437 18.45335937 427.94921875 18.04296875 C426.22638672 17.47255859 426.22638672 17.47255859 424.46875 16.890625 C423.44201172 16.55063477 422.41527344 16.21064453 421.35742188 15.86035156 C413.4090128 13.82354284 405.34250028 13.85142842 397.1811676 13.85282898 C396.01828199 13.84915229 394.85539637 13.8454756 393.6572718 13.8416875 C390.45150043 13.83262054 387.24575914 13.82796425 384.03997719 13.82529819 C380.57349309 13.82137034 377.10702347 13.81179402 373.64054871 13.80308533 C365.28077809 13.78339229 356.9210064 13.7732646 348.56121841 13.76435754 C344.61512624 13.75996356 340.66903539 13.75459972 336.72294426 13.74936867 C323.59000839 13.73236484 310.45707332 13.71787277 297.32412815 13.71061993 C293.92189597 13.70871035 290.5196638 13.70678996 287.11743164 13.70483398 C286.27192692 13.70435024 285.42642219 13.7038665 284.55529612 13.7033681 C270.87188348 13.69507535 257.18855847 13.66974741 243.50518406 13.63725331 C229.427116 13.60409692 215.34909235 13.58616351 201.27098507 13.58297569 C193.37863053 13.5808187 185.48640386 13.57218952 177.5940876 13.54651451 C170.87029779 13.52469001 164.14666694 13.51681437 157.42284573 13.52648129 C153.99975348 13.53099208 150.57698838 13.52933098 147.15394211 13.50971985 C128.4228459 13.42000599 111.73930964 14.78940325 94.1875 21.75 Z " fill="#DBDBD9" transform="translate(0,0)"/>
<path d="M0 0 C3.47444725 0.0089362 6.94886091 0.00037174 10.42330801 -0.00586212 C17.20920988 -0.01529701 23.99500457 -0.00879766 30.78089841 0.00340082 C38.69711947 0.01709559 46.61331569 0.01537647 54.52954558 0.01326749 C68.65986029 0.01008552 82.7901244 0.02170087 96.9204241 0.04133332 C110.60761424 0.0603449 124.29474514 0.06741703 137.98194754 0.06184113 C152.9190401 0.05577397 167.85610669 0.05597673 182.7931971 0.06732696 C184.38784011 0.06853415 185.98248313 0.06974013 187.57712615 0.07094491 C188.75375941 0.07185021 188.75375941 0.07185021 189.95416304 0.07277381 C195.46254953 0.07664116 200.9709263 0.07626398 206.47931349 0.07435906 C213.19652136 0.07223006 219.91367755 0.07751465 226.6308709 0.09197261 C230.05315998 0.09918151 233.47537408 0.10332378 236.89766943 0.09872925 C240.6171438 0.09549061 244.33639448 0.10463171 248.05584586 0.11681855 C249.12347118 0.11303922 250.1910965 0.1092599 251.2910741 0.10536605 C261.74234465 0.16566305 271.58603711 1.78808387 281.44312918 5.25251496 C282.22067557 5.52007599 282.99822196 5.78763703 283.79933035 6.06330597 C289.08630194 7.90710745 294.25798177 9.83874558 299.25562918 12.37751496 C300.28043387 12.89056183 301.30523856 13.40360871 302.36109793 13.93220246 C309.24432865 17.49659121 315.38016601 21.32630741 321.25562918 26.37751496 C322.05484793 27.05556183 322.85406668 27.73360871 323.67750418 28.43220246 C335.21016396 38.49641798 343.66211699 49.19990583 351.25562918 62.37751496 C351.77125418 63.2631009 352.28687918 64.14868683 352.81812918 65.06110871 C361.21966745 80.63020932 363.56371821 97.97769916 363.52978384 115.42129242 C363.53424837 116.78896898 363.53956635 118.15664297 363.54565257 119.52431327 C363.55969798 123.24535146 363.56149845 126.9663056 363.56105566 130.68736649 C363.56271593 134.71560007 363.57580491 138.74380022 363.58724844 142.77201569 C363.61000639 151.56389884 363.61800939 160.35575772 363.62307489 169.14766634 C363.62634324 174.64944879 363.63287259 180.15122433 363.64007628 185.65300286 C363.65963169 200.92038507 363.6760416 216.1877609 363.67895281 231.45515645 C363.67914038 232.43037693 363.67932795 233.40559741 363.67952121 234.41037003 C363.67988743 236.38692943 363.68025113 238.36348883 363.68061232 240.34004823 C363.68079513 241.32106215 363.68097794 242.30207608 363.68116629 243.31281769 C363.68143711 244.78615932 363.68143711 244.78615932 363.68171341 246.28926542 C363.68525048 262.1831747 363.71224841 278.07694811 363.74966418 293.97081033 C363.78787263 310.33392456 363.80711121 326.6969716 363.80741233 343.06013137 C363.80799415 352.22918885 363.81630692 361.39808429 363.84540999 370.56709969 C363.87009252 378.37869529 363.87709442 386.19006976 363.86216246 394.00169394 C363.85506128 397.97646741 363.85555113 401.95080578 363.87857306 405.92552865 C364.08027607 443.03139867 357.29032883 475.3088765 330.63062918 502.62751496 C316.73693684 516.39818169 299.67912889 524.8701068 281.00562918 530.25251496 C279.96173026 530.55766022 279.96173026 530.55766022 278.89674246 530.86897004 C268.85341083 533.57006191 258.37131808 533.52632883 248.03806937 533.51795685 C246.28377071 533.52241354 246.28377071 533.52241354 244.49403167 533.52696025 C241.28363455 533.53407569 238.07327028 533.53681445 234.86286652 533.53755772 C231.38621209 533.53942495 227.90956887 533.54698029 224.43292105 533.55369294 C216.8479558 533.56720791 209.26299588 533.57328989 201.6780206 533.5777036 C196.93259918 533.58047692 192.18717976 533.58471613 187.44175971 533.58920777 C174.27524503 533.60139015 161.10873194 533.61169236 147.94221175 533.61508286 C146.68107946 533.61541221 146.68107946 533.61541221 145.39446975 533.61574821 C144.55183514 533.61596649 143.70920054 533.61618477 142.84103155 533.61640966 C141.13385316 533.61685311 139.42667476 533.61729967 137.71949637 533.61774933 C136.87269754 533.61797076 136.0258987 533.61819219 135.1534393 533.61842033 C121.44113539 533.622366 107.72888468 533.6398176 94.01660131 533.66310886 C79.9022775 533.68688748 65.78798034 533.69928762 51.6736362 533.70045078 C43.76346688 533.70136374 35.85336698 533.70702018 27.94321692 533.72527039 C21.20670764 533.74075942 14.47028926 533.74574032 7.73376553 533.73753229 C4.30463244 533.73365702 0.87568192 533.73439997 -2.55342805 533.74858963 C-35.55816431 533.8619298 -63.10307659 528.08179076 -88.74437082 506.37751496 C-89.29367258 505.91860871 -89.84297433 505.45970246 -90.4089216 504.98688996 C-108.65750263 489.57062423 -120.97213954 468.31182416 -126.15843332 444.94782746 C-126.48607298 442.45839368 -126.48607298 442.45839368 -127.74437082 441.37751496 C-129.10247866 434.6714802 -128.892543 427.90727754 -128.89154184 421.09081757 C-128.89484491 419.73229467 -128.8985714 418.37377275 -128.90268332 417.01525205 C-128.91266136 413.2918961 -128.91641333 409.56855627 -128.91907263 405.84518886 C-128.92298826 401.82515491 -128.93256576 397.80513358 -128.94128549 393.78510773 C-128.96101568 384.08077396 -128.97111229 374.37643919 -128.98001328 364.67209038 C-128.98440232 360.0954007 -128.98976757 355.51871217 -128.99500215 350.9420234 C-129.01201191 335.71604858 -129.02650392 320.49007447 -129.03375089 305.26409161 C-129.0356606 301.31597816 -129.03758096 297.36786471 -129.03953683 293.41975129 C-129.04002057 292.4385379 -129.04050431 291.4573245 -129.04100271 290.44637737 C-129.049295 274.56745765 -129.0746195 258.68861346 -129.10711751 242.80972668 C-129.1402534 226.48525751 -129.15820559 210.16082664 -129.16139513 193.83632368 C-129.16355432 184.67968465 -129.17221589 175.52315573 -129.19785631 166.36654961 C-129.21965281 158.56491195 -129.22757005 150.76341114 -129.21788952 142.96174648 C-129.21337042 138.98781295 -129.21508995 135.01416126 -129.23465097 131.04026711 C-129.30712032 115.44100973 -129.36204015 100.41909841 -124.74437082 85.37751496 C-124.51677249 84.62933326 -124.28917416 83.88115155 -124.05467892 83.11029768 C-115.76702284 55.99165238 -98.67837889 33.65216918 -74.74437082 18.37751496 C-73.91421457 17.81677277 -73.08405832 17.25603058 -72.22874582 16.67829621 C-65.77672291 12.57665308 -59.08320033 9.7789872 -51.93187082 7.12751496 C-51.05563058 6.79824006 -50.17939035 6.46896515 -49.27659738 6.12971222 C-32.84109083 0.26395729 -17.29790387 -0.06105158 0 0 Z M-6.63865793 26.7671634 C-7.35733895 26.78361547 -8.07601997 26.80006753 -8.81647921 26.81701815 C-30.30654527 27.33433058 -47.78670883 32.4057403 -65.74437082 44.37751496 C-65.74437082 45.03751496 -65.74437082 45.69751496 -65.74437082 46.37751496 C-66.33911203 46.64773468 -66.93385324 46.91795441 -67.54661691 47.19636261 C-69.72597637 48.36762912 -71.16358743 49.53881008 -72.90843332 51.27595246 C-73.47304269 51.83798371 -74.03765207 52.40001496 -74.61937082 52.97907746 C-75.19687082 53.56431183 -75.77437082 54.14954621 -76.36937082 54.75251496 C-76.95460519 55.33001496 -77.53983957 55.90751496 -78.14280832 56.50251496 C-78.98585519 57.34942902 -78.98585519 57.34942902 -79.84593332 58.21345246 C-80.35462961 58.72440461 -80.8633259 59.23535676 -81.38743722 59.7617923 C-82.87046487 61.52765717 -83.7617834 63.29930381 -84.74437082 65.37751496 C-85.62412059 66.45336994 -86.52148683 67.51495562 -87.43187082 68.56501496 C-90.63540892 72.74147944 -92.61453486 77.23585929 -94.61937082 82.06501496 C-94.92963205 82.80195588 -95.23989328 83.53889679 -95.55955637 84.29816926 C-97.1239174 88.19515561 -97.9427097 91.13159369 -97.74437082 95.37751496 C-98.36546457 97.62360871 -98.36546457 97.62360871 -99.18187082 99.81501496 C-101.16981363 105.18342091 -101.86755751 110.36470925 -101.88138521 116.07869828 C-101.88645975 117.19771397 -101.89153429 118.31672966 -101.89676261 119.46965492 C-101.89726037 120.68889412 -101.89775812 121.90813332 -101.89827096 123.16431916 C-101.90265322 124.46756583 -101.90703547 125.7708125 -101.91155052 127.1135515 C-101.92347689 130.72514869 -101.92915533 134.33673254 -101.93373168 137.94834554 C-101.93970295 141.84638013 -101.95130914 145.74439891 -101.96202219 149.6424228 C-101.98651426 159.05499146 -102.00117017 168.46756534 -102.01408225 177.88015604 C-102.017797 180.54128526 -102.02177002 183.20241397 -102.02583492 185.86354268 C-102.0510781 202.4081207 -102.07311938 218.95269961 -102.08556306 235.49729264 C-102.08849251 239.3273212 -102.0914542 243.15734974 -102.09446847 246.98737824 C-102.09521453 247.93925098 -102.09596058 248.89112373 -102.09672923 249.8718411 C-102.10936771 265.27232193 -102.14257211 280.67268691 -102.18427031 296.07311365 C-102.22678282 311.904865 -102.25026896 327.7365572 -102.25548363 343.56836545 C-102.25888757 352.44894751 -102.27052185 361.32934864 -102.30358636 370.20987427 C-102.3317166 377.77733024 -102.34252981 385.34456817 -102.3313909 392.91207233 C-102.32623686 396.76657549 -102.32887581 400.62062302 -102.35385644 404.47505867 C-102.50303778 428.83546082 -100.27429351 453.28589354 -84.22483957 472.97126496 C-82.84300391 474.60708135 -82.84300391 474.60708135 -80.74437082 474.37751496 C-80.48011301 474.96274933 -80.21585519 475.54798371 -79.94358957 476.15095246 C-76.26743072 482.97639396 -69.54657796 487.41561675 -63.24437082 491.62751496 C-62.62795724 492.03953156 -62.01154367 492.45154816 -61.3764509 492.87605011 C-38.58069569 507.71238519 -11.01491003 506.69095753 15.22437918 506.60798371 C17.76977397 506.60724986 20.3151691 506.60731466 22.86056387 506.60810578 C29.01803122 506.60735192 35.17541057 506.59681726 41.33285528 506.5808506 C46.35320289 506.56791248 51.37354496 506.55866463 56.39390433 506.55173981 C75.59042711 506.52455824 94.78678269 506.4696496 113.98320299 506.40227205 C119.68828505 506.38242704 125.39337123 506.36479501 131.09846365 506.34821808 C149.05071164 506.29567569 167.00282224 506.23160521 184.95490324 506.13698018 C186.53284704 506.12866539 188.11079084 506.12035284 189.68873465 506.11204255 C190.4655013 506.10793868 191.24226794 506.1038348 192.04257298 506.09960657 C197.49183315 506.07144969 202.94109366 506.05026275 208.39039481 506.03190339 C215.0513669 506.00924909 221.71218558 505.97585188 228.37303382 505.92911434 C231.77394827 505.90548149 235.17459286 505.88785258 238.57560027 505.87984955 C267.65836829 505.80420773 290.47313888 501.80228547 311.87916434 480.76374543 C332.24432046 460.25410434 338.41716441 429.76272228 338.39607108 401.85514557 C338.3990422 400.61663932 338.40201332 399.37813307 338.40507448 398.10209632 C338.41221802 394.68529577 338.41493091 391.26854555 338.41567194 387.85174119 C338.41753225 384.15832078 338.42508437 380.46491106 338.43180716 376.77149689 C338.44535085 368.70516573 338.45140886 360.63883956 338.45581782 352.57249892 C338.45858668 347.52978739 338.46282517 342.48707777 338.46732199 337.44436753 C338.47950895 323.46473987 338.48980974 309.48511373 338.49319708 295.50548089 C338.49341665 294.61191658 338.49363622 293.71835228 338.49386244 292.79771028 C338.49408071 291.90209088 338.49429899 291.00647148 338.49452388 290.0837121 C338.49496734 288.26904873 338.4954139 286.45438536 338.49586356 284.63972199 C338.49608499 283.73959927 338.49630642 282.83947655 338.49653456 281.91207738 C338.5004807 267.33427623 338.5179317 252.75652512 338.54122308 238.17874329 C338.56497848 223.18876945 338.57740082 208.19882069 338.578565 193.20882773 C338.57947935 184.80183706 338.58517109 176.39491162 338.60338461 167.987939 C338.61884218 160.82820214 338.62387285 153.6685507 338.61564651 146.50880031 C338.61176007 142.86133515 338.61257046 139.2140417 338.62670386 135.56659806 C338.86133741 115.25864474 338.86133741 115.25864474 335.25562918 95.37751496 C335.03194788 94.57413382 334.80826659 93.77075268 334.57780707 92.94302666 C334.00541792 91.02859985 333.35414644 89.13817546 332.69312918 87.25251496 C332.27934012 86.05368683 331.86555106 84.85485871 331.43922293 83.61970246 C330.42768787 80.84883083 329.37319259 78.1070477 328.25562918 75.37751496 C327.59562918 75.37751496 326.93562918 75.37751496 326.25562918 75.37751496 C326.15508231 74.66208527 326.05453543 73.94665558 325.95094168 73.20954621 C322.12942643 57.64438577 306.0616195 46.19149169 293.25562918 38.06501496 C287.54410155 34.79864859 281.5296961 32.33856807 275.25562918 30.37751496 C274.0780484 30.00363459 274.0780484 30.00363459 272.87667811 29.62220109 C261.58138798 26.51974481 250.21194948 26.92856515 238.58546317 26.92927277 C236.1986317 26.91860362 233.81180568 26.90665144 231.42498648 26.89352143 C225.63476914 26.86504736 219.84463512 26.85015028 214.05435657 26.84161898 C207.27304941 26.83100193 200.49183117 26.80442554 193.71057344 26.77727494 C181.57221173 26.72919376 169.43385141 26.69506587 157.2954241 26.66901886 C145.60169336 26.64391068 133.90804048 26.60963288 122.21436942 26.56452668 C121.49736443 26.56176245 120.78035945 26.55899822 120.04162704 26.55615023 C119.32569474 26.55338787 118.60976244 26.55062551 117.87213522 26.54777944 C116.42954184 26.54221548 114.98694844 26.53665516 113.54435503 26.53109848 C112.83236507 26.52835465 112.1203751 26.52561081 111.38680967 26.52278383 C100.14317543 26.47984091 88.89951279 26.44544923 77.65584723 26.41188337 C72.96827634 26.39777784 68.28071469 26.3818098 63.59315169 26.36528504 C28.47446755 26.22808287 28.47446755 26.22808287 -6.63865793 26.7671634 Z " fill="#2B3134" transform="translate(148.74437081813812,13.622485041618347)"/>
<path d="M0 0 C1.1741727 -0.00538554 2.3483454 -0.01077108 3.55809909 -0.01631981 C6.78612068 -0.02807366 10.01380676 -0.02656494 13.24183071 -0.019153 C16.73552403 -0.01439567 20.22916362 -0.0269539 23.72283936 -0.03717041 C30.55607202 -0.05431553 37.38921255 -0.05520712 44.22246113 -0.04995751 C49.78175816 -0.04590549 55.34102811 -0.04737159 60.90032387 -0.05270576 C62.09011499 -0.0538284 62.09011499 -0.0538284 63.3039423 -0.05497371 C64.91568973 -0.0565053 66.52743715 -0.05804365 68.13918457 -0.05958868 C83.23530683 -0.07329897 98.3313772 -0.06788706 113.42749826 -0.05640347 C127.20914254 -0.04647921 140.9906524 -0.05940039 154.77227595 -0.08333766 C168.952111 -0.1077793 183.13188359 -0.11732371 197.31173927 -0.11068493 C205.26099385 -0.10720309 213.21014522 -0.10935565 221.15938377 -0.12693596 C227.92858074 -0.14172175 234.69760184 -0.14221109 241.46679559 -0.12486505 C244.91394287 -0.11640347 248.36077688 -0.11408488 251.8079071 -0.1295166 C272.21412315 -0.20180882 291.72590017 -0.06606507 307.66377258 14.63768005 C320.16979909 28.24179669 323.5451873 42.25960491 322.97871399 60.08787537 C322.24973865 73.24294767 315.72912529 84.52324777 306.23408508 93.4228363 C302.37293737 96.60670073 298.34860452 99.19762129 293.85127258 101.38768005 C293.18173703 101.71514833 292.51220148 102.0426166 291.82237697 102.38000816 C284.91294882 105.47307368 278.93666383 105.95753804 271.42970276 105.90234375 C270.21413783 105.90928928 268.9985729 105.91623481 267.74617267 105.92339081 C264.39781325 105.93844481 261.05034981 105.93575145 257.70203209 105.92523777 C254.0808726 105.91821446 250.45980178 105.93426755 246.83866882 105.94723511 C239.75395137 105.96883012 232.66939483 105.96875949 225.58465531 105.96060956 C219.82222161 105.95429743 214.05983466 105.9554577 208.29740143 105.96188164 C207.06491048 105.96323412 207.06491048 105.96323412 205.80752073 105.96461393 C204.1380303 105.96646523 202.46853988 105.96832779 200.79904947 105.97020148 C185.15741242 105.98676509 169.51586566 105.97807389 153.87423405 105.96121591 C139.58675852 105.94652895 125.29949348 105.96113571 111.01204506 105.98998607 C96.31921671 106.01943249 81.62648534 106.03033653 66.9336288 106.02080387 C65.26922148 106.01978139 63.60481415 106.01878677 61.9404068 106.01782036 C60.71222928 106.01710577 60.71222928 106.01710577 59.45924009 106.01637675 C53.71086434 106.01421906 47.96258104 106.0239825 42.21422577 106.03859138 C35.19824515 106.05617388 28.18253247 106.05591346 21.16656211 106.03323973 C17.59202385 106.0221493 14.01795657 106.01881507 10.44343948 106.03754044 C-8.59504182 106.12980875 -24.30241366 105.83857757 -39.14872742 92.38768005 C-51.50319986 79.51281642 -56.50229835 65.93156068 -56.44950867 48.2822113 C-55.36465147 34.23542396 -48.36120342 21.1273334 -38.07060242 11.66111755 C-26.80114232 2.8926339 -14.02476862 -0.0782169 0 0 Z " fill="#F0F3F3" transform="translate(133.1487274169922,66.61231994628906)"/>
<path d="M0 0 C1.96549805 -0.02320313 1.96549805 -0.02320313 3.97070312 -0.046875 C11.52922323 -0.01641245 17.40089002 0.58865386 23.9375 4.5 C24.80761719 5.00660156 25.67773438 5.51320313 26.57421875 6.03515625 C33.83197513 11.44045672 38.4781834 18.49516285 39.9375 27.5 C40.17315954 31.73212022 40.20776493 35.96192872 40.23266602 40.20019531 C40.24416234 41.55967639 40.26457745 42.91911316 40.29418945 44.27832031 C40.47533324 52.61295826 40.25062691 59.24678312 35.9375 66.5 C35.44507813 67.41652344 34.95265625 68.33304687 34.4453125 69.27734375 C31.41577371 74.00992836 29.62753498 76.17673605 23.9375 77.5 C23.4425 78.985 23.4425 78.985 22.9375 80.5 C16.78530193 83.23494626 10.38287558 82.87214633 3.78955078 82.87060547 C1.70651293 82.87496025 -0.37436982 82.91128051 -2.45703125 82.94921875 C-13.54521059 83.04388687 -22.02637093 81.2296053 -30.2421875 73.49609375 C-38.71095784 64.2095237 -40.47854977 55.9587039 -40.54296875 43.68286133 C-40.56224043 41.46734126 -40.6242599 39.25565445 -40.6875 37.04101562 C-40.84456069 26.54726912 -39.11594087 18.15933812 -31.86132812 10.03491211 C-22.64372422 0.87991586 -12.53450376 -0.1484105 0 0 Z " fill="#E3E6E7" transform="translate(316.0625,401.5)"/>
<path d="M0 0 C1.12921875 -0.02449219 2.2584375 -0.04898437 3.421875 -0.07421875 C15.7117945 -0.11689208 24.46440935 3.77666883 33.25 12.375 C39.6265664 20.48384205 40.62305411 27.81569672 40.62060547 37.96533203 C40.624942 39.97314809 40.66186127 41.98080807 40.69921875 43.98828125 C40.7363417 56.42447076 38.13059598 66.36727893 29.25 75.375 C18.65852859 84.18287643 5.37871555 84.43357924 -7.75 83.375 C-18.3898321 81.60970054 -27.03543327 77.15338726 -33.875 68.75 C-39.90450761 60.16344306 -41.45788733 51.26000054 -41.3125 40.9375 C-41.30154297 39.83728516 -41.29058594 38.73707031 -41.27929688 37.60351562 C-40.96733761 25.93623924 -38.16380693 17.85716307 -29.9296875 9.28125 C-20.99987167 1.47166197 -11.49364161 0.01294329 0 0 Z " fill="#E3E6E6" transform="translate(118.75,401.625)"/>
<path d="M0 0 C1.18078125 -0.01611328 2.3615625 -0.03222656 3.578125 -0.04882812 C15.86341608 -0.05566849 23.75161981 2.65003207 32.625 11.3125 C40.44541449 20.71312195 41.03213291 30.13042565 41.125 42 C41.16625 43.29873047 41.2075 44.59746094 41.25 45.93554688 C41.342315 57.42299524 38.09020812 65.60449323 30.625 74.3125 C28.22265625 76.04296875 28.22265625 76.04296875 25.6875 77.5 C24.85347656 77.98855469 24.01945312 78.47710937 23.16015625 78.98046875 C16.16050727 82.65825042 10.31068407 82.64604171 2.5 82.625 C1.32695312 82.64111328 0.15390625 82.65722656 -1.0546875 82.67382812 C-13.00246536 82.68046578 -21.52696839 81.14724202 -30.2109375 72.65625 C-36.47671363 65.87021087 -39.68076489 60.05281009 -39.7109375 50.703125 C-39.7175943 49.97687927 -39.7242511 49.25063354 -39.73110962 48.50238037 C-39.74120295 46.96938596 -39.74592767 45.43634791 -39.74560547 43.90332031 C-39.74996109 41.5832276 -39.78626272 39.26506696 -39.82421875 36.9453125 C-39.91205369 25.54611822 -38.22605934 17.6067987 -30.296875 9.1015625 C-21.22718216 0.65863705 -11.93512548 -0.03236205 0 0 Z " fill="#E6EAEA" transform="translate(315.375,298.6875)"/>
<path d="M0 0 C1.08216797 -0.02900391 2.16433594 -0.05800781 3.27929688 -0.08789062 C14.91429004 -0.17862542 23.36061352 2.76575007 31.76953125 10.8671875 C39.59396402 19.69258374 40.16847203 27.96426514 40.23266602 39.30957031 C40.24413534 40.71755056 40.26450676 42.12548907 40.29418945 43.53320312 C40.55975725 56.1498988 38.89438835 65.07964223 30.015625 74.40234375 C18.97697107 84.54877565 4.0511665 83.09344909 -9.94921875 82.53759766 C-18.7785663 81.89921478 -24.91880712 78.93750133 -31.125 72.5625 C-41.7775163 59.46674602 -41.658106 43.51441606 -40.0625 27.3125 C-38.82561575 21.92031093 -36.40824727 17.71861205 -33.0625 13.3125 C-32.51078125 12.58417969 -31.9590625 11.85585938 -31.390625 11.10546875 C-22.9272189 1.53375947 -12.00430353 0.10462786 0 0 Z " fill="#E2E5E5" transform="translate(217.0625,401.6875)"/>
<path d="M0 0 C1.216875 -0.04576172 2.43375 -0.09152344 3.6875 -0.13867188 C13.56550486 -0.26003625 21.53615212 1.92138521 28.96850586 8.68334961 C38.11065317 18.26497041 39.68103324 27.35745287 39.6875 40.1875 C39.69974609 41.45078125 39.71199219 42.7140625 39.72460938 44.015625 C39.74414026 56.41122658 37.07990298 65.16362228 28.69921875 74.5078125 C18.14750428 83.76633283 5.76252309 84.20494133 -7.5 83.4375 C-17.79699955 82.17445848 -25.64694203 78.74520293 -32.8125 71.1875 C-39.46694693 62.45229691 -40.16728868 53.33010416 -40.07641602 42.70605469 C-40.06251883 40.44056895 -40.09675167 38.17920344 -40.13476562 35.9140625 C-40.1883283 25.9749838 -38.58394635 18.93256602 -32.578125 10.8515625 C-22.82880202 1.31055839 -13.1673113 0.19723762 0 0 Z " fill="#E1E5E5" transform="translate(414.5,401.5625)"/>
<path d="M0 0 C1.65999023 0.0009668 1.65999023 0.0009668 3.35351562 0.00195312 C15.47933403 0.06718466 23.5312191 1.68712613 32.68359375 10.1484375 C40.69150211 18.8624195 42.22121917 26.38932037 42.08398438 37.96850586 C42.06257446 40.11752612 42.08383066 42.26319205 42.109375 44.41210938 C42.12504611 52.08445199 41.57981346 58.45309423 37.5625 65.1875 C36.89347656 66.49267578 36.89347656 66.49267578 36.2109375 67.82421875 C31.54868454 75.33244821 24.81407125 79.3097543 16.5625 82.1875 C12.36257376 82.60247602 8.15591079 82.51183617 3.9375 82.5 C2.81214844 82.51611328 1.68679687 82.53222656 0.52734375 82.54882812 C-8.12639589 82.55383029 -18.37183132 82.21067635 -24.97265625 75.8203125 C-25.45605469 75.28148437 -25.93945312 74.74265625 -26.4375 74.1875 C-27.09621094 73.46304688 -27.75492188 72.73859375 -28.43359375 71.9921875 C-37.08576203 61.86359418 -39.13083522 53.01486395 -39.0625 39.8125 C-39.09472656 38.575 -39.12695312 37.3375 -39.16015625 36.0625 C-39.17131375 25.46287529 -36.25203535 17.04305752 -29 9.1875 C-20.24924532 1.26556129 -11.45754024 -0.12634548 0 0 Z " fill="#E9ECEC" transform="translate(117.4375,298.8125)"/>
<path d="M0 0 C1.12535156 -0.02900391 2.25070313 -0.05800781 3.41015625 -0.08789062 C14.17410178 -0.16877576 22.83638989 2.01781275 30.7265625 9.5859375 C39.5901628 18.86961364 40.66226488 27.18603447 40.83496094 39.51708984 C40.86132973 40.94647159 40.90198715 42.3756723 40.95800781 43.80419922 C41.38689056 54.90606162 39.66041759 62.93489948 33.375 72.3125 C30.87718519 74.85408493 28.51661871 76.6477106 25.375 78.3125 C24.29089844 79.01246094 23.20679688 79.71242188 22.08984375 80.43359375 C16.37455668 83.25648082 10.1947818 82.8735123 3.96630859 82.77905273 C1.87907369 82.75005659 -0.2056178 82.75847831 -2.29296875 82.77148438 C-13.32527061 82.75600506 -20.33342805 81.2566394 -28.51171875 73.55859375 C-37.85745079 63.62551441 -39.02120859 53.89083993 -39.125 40.625 C-39.16625 39.32626953 -39.2075 38.02753906 -39.25 36.68945312 C-39.34231144 25.20244863 -36.0897604 17.01968476 -28.625 8.3125 C-26.00390625 6.328125 -26.00390625 6.328125 -23.1875 4.5625 C-22.26066406 3.96953125 -21.33382812 3.3765625 -20.37890625 2.765625 C-14.06225633 -0.56741581 -6.96992695 0.05866942 0 0 Z " fill="#E7EBEA" transform="translate(216.625,298.6875)"/>
<path d="M0 0 C1.17369141 -0.03738281 2.34738281 -0.07476562 3.55664062 -0.11328125 C15.04932076 -0.22763628 24.75605197 2.92951986 33.10375977 11.04296875 C40.46029412 19.80149003 42.00247899 28.66232323 41.75 39.8125 C41.76482422 41.03259766 41.77964844 42.25269531 41.79492188 43.50976562 C41.69200996 54.89666648 38.66152539 65.69039955 31.0625 74.375 C22.7798603 81.78256965 14.31160094 82.82853327 3.5625 82.625 C1.92861328 82.61726563 1.92861328 82.61726563 0.26171875 82.609375 C-5.55341575 82.55312219 -11.18665475 82.24041846 -16.9375 81.375 C-16.9375 80.715 -16.9375 80.055 -16.9375 79.375 C-17.67871094 79.27703125 -18.41992188 79.1790625 -19.18359375 79.078125 C-25.21647855 77.53781399 -30.62085831 71.46841403 -33.9375 66.375 C-38.23994466 58.534785 -38.59096985 50.79251416 -38.51391602 42.07080078 C-38.50001708 39.87769454 -38.53425665 37.688844 -38.57226562 35.49609375 C-38.62714029 25.74358907 -37.18760455 18.42629122 -30.76171875 10.7890625 C-20.82786473 2.47150283 -12.83643452 0.15061417 0 0 Z " fill="#E5E9E9" transform="translate(412.9375,298.625)"/>
<path d="M0 0 C1.14275391 -0.02900391 2.28550781 -0.05800781 3.46289062 -0.08789062 C14.17418611 -0.16750574 23.27516055 2.48875063 31.21484375 9.9921875 C39.66464683 18.8885975 41.12329643 28.21575914 41.01391602 40.18945312 C41.00001519 42.3101832 41.03426191 44.42651288 41.07226562 46.546875 C41.13369612 57.17823816 38.96144871 65.49861107 31.4375 73.3125 C28.81640625 75.26171875 28.81640625 75.26171875 26 77 C25.07316406 77.58136719 24.14632812 78.16273438 23.19140625 78.76171875 C16.1499552 82.72690466 10.20415658 82.64634771 2.25 82.625 C1.06857422 82.64111328 -0.11285156 82.65722656 -1.33007812 82.67382812 C-13.17618408 82.68039106 -20.83264452 80.92333395 -29.43359375 72.578125 C-37.92724984 63.53900476 -39.10164682 54.51463152 -39.06347656 42.58642578 C-39.06250485 40.44816991 -39.10419824 38.31352045 -39.1484375 36.17578125 C-39.23370131 26.48886875 -37.50542026 19.64319757 -31.67578125 11.76171875 C-22.15311468 2.44561761 -12.96711768 0.10716626 0 0 Z " fill="#ECEFEF" transform="translate(314.5625,196.6875)"/>
<path d="M0 0 C1.03382813 -0.02449219 2.06765625 -0.04898438 3.1328125 -0.07421875 C13.89464789 -0.1148806 22.2205726 3.22320769 30.25 10.375 C38.32622636 18.8999056 39.55350127 28.2914621 39.70996094 39.55908203 C39.73633271 41.00213232 39.7769935 42.44500316 39.83300781 43.88720703 C40.28734118 55.75187666 38.35065362 64.20583893 30.3737793 73.57983398 C21.67696827 81.92355295 11.79707814 83.00403641 0.1875 82.8125 C-1.02744141 82.81958984 -2.24238281 82.82667969 -3.49414062 82.83398438 C-14.28746624 82.75793384 -21.74276851 81.21851258 -29.671875 73.69140625 C-38.04503097 64.35817037 -40.15883892 55.0218156 -40.23046875 42.76416016 C-40.24974907 40.77587693 -40.31209574 38.78816269 -40.375 36.80078125 C-40.45633084 26.64459208 -38.44658576 18.52547654 -31.47387695 10.87890625 C-27.26693508 6.85681701 -23.24003241 4.23953931 -17.75 2.375 C-16.93402344 2.02953125 -16.11804688 1.6840625 -15.27734375 1.328125 C-10.18011971 -0.049198 -5.25739033 0.00645871 0 0 Z " fill="#EDF0F0" transform="translate(217.75,196.625)"/>
<path d="M0 0 C6.85474357 5.74120927 12.08896441 12.16660699 13.5625 21.1875 C13.80611225 25.41417262 13.79357091 29.64198334 13.8125 33.875 C13.833125 35.00873047 13.85375 36.14246094 13.875 37.31054688 C13.93637548 50.62135357 10.66397727 58.60873404 1.64453125 68.234375 C-6.38186722 75.98842063 -16.0387871 75.59213027 -26.75 75.6875 C-27.89662109 75.72875 -29.04324219 75.77 -30.22460938 75.8125 C-39.73916205 75.89865328 -47.41589813 73.46644433 -54.73706055 67.22802734 C-63.96329264 57.60131535 -67.44608951 47.34683301 -67.1875 34.1875 C-67.22230469 32.41632813 -67.22230469 32.41632813 -67.2578125 30.609375 C-67.18749361 19.96778359 -63.53273166 10.55453589 -56.19140625 2.71484375 C-41.53568164 -10.04771376 -15.98359632 -11.22764864 0 0 Z " fill="#EDF0F0" transform="translate(145.4375,203.8125)"/>
<path d="M0 0 C1.63485352 -0.02416992 1.63485352 -0.02416992 3.30273438 -0.04882812 C12.74365184 -0.05450516 20.07759571 1.52235543 27.6875 7.3125 C28.53441406 7.90804687 28.53441406 7.90804687 29.3984375 8.515625 C36.07959914 13.59214083 40.32888572 21.05676951 41.6875 29.3125 C41.92733945 33.24768402 41.91844596 37.18319609 41.9375 41.125 C41.958125 42.18009766 41.97875 43.23519531 42 44.32226562 C42.05550747 55.45845202 38.59137394 64.21663016 30.765625 72.296875 C28.78787479 74.09064845 26.85281986 75.74844647 24.6875 77.3125 C23.29337891 78.38757813 23.29337891 78.38757813 21.87109375 79.484375 C16.60322853 82.41658809 10.59241967 81.87035288 4.7265625 81.77905273 C2.69187841 81.75006238 0.65980286 81.75847224 -1.375 81.77148438 C-12.29666066 81.701057 -19.13373094 79.67505789 -27.3125 72.3125 C-36.40051506 62.40969739 -38.51252411 52.13471171 -38.625 39.125 C-38.65400391 38.02607422 -38.68300781 36.92714844 -38.71289062 35.79492188 C-38.79439878 25.28037039 -35.63079152 16.97334985 -28.3125 9.3125 C-19.08284247 1.67623611 -11.79599736 -0.0345114 0 0 Z " fill="#E8EBEC" transform="translate(412.3125,197.6875)"/>
<path d="M0 0 C6.27 0 12.54 0 19 0 C19.10116942 15.70374158 19.08078309 31.32864518 18 47 C21.96 47 25.92 47 30 47 C30 51.95 30 56.9 30 62 C26.7 62 23.4 62 20 62 C20 65.96 20 69.92 20 74 C15.38 74 10.76 74 6 74 C6 70.04 6 66.08 6 62 C-5.22 62 -16.44 62 -28 62 C-28 44.76910496 -28 44.76910496 -23.6875 38.1875 C-23.01895996 37.08063843 -23.01895996 37.08063843 -22.33691406 35.95141602 C-21.39765032 34.40476825 -20.44384113 32.86686508 -19.47607422 31.33789062 C-17.98064609 28.96934618 -16.53429777 26.57646648 -15.09765625 24.171875 C-10.90642518 17.18268118 -6.6370778 10.25169714 -2.0234375 3.53125 C-0.9301889 1.96471283 -0.9301889 1.96471283 0 0 Z " fill="#0C1317" transform="translate(404,81)"/>
<path d="M0 0 C1.12595581 0.01244751 1.12595581 0.01244751 2.2746582 0.02514648 C8.94262294 0.22927527 13.39673977 1.42180966 18.29296875 6.0859375 C22.19481391 10.33070017 24.28157011 13.95595265 24.9375 19.75 C24.39175891 25.11645405 22.39554948 29.60445052 18.5625 33.4375 C18.5625 34.4275 18.5625 35.4175 18.5625 36.4375 C20.02951757 37.68127577 21.50264929 38.92268173 23.0546875 40.05859375 C25.79731761 42.5667503 26.49311044 44.74811019 26.86328125 48.42578125 C26.89817325 58.32347865 25.7068623 63.63509839 18.76953125 70.859375 C12.20622332 75.55243058 5.37476309 76.00928295 -2.4375 76.0625 C-3.38367188 76.10761719 -4.32984375 76.15273437 -5.3046875 76.19921875 C-10.68232695 76.25135653 -13.82466894 75.66459835 -17.97265625 72.11328125 C-23.63008633 66.55516934 -25.88359765 61.33060843 -26.4375 53.4375 C-21.4875 53.4375 -16.5375 53.4375 -11.4375 53.4375 C-10.4475 55.4175 -9.4575 57.3975 -8.4375 59.4375 C-5.864171 60.7241645 -3.93526962 60.60574551 -1.0625 60.625 C-0.10601562 60.63917969 0.85046875 60.65335938 1.8359375 60.66796875 C4.65600283 60.42959647 6.21781337 59.99201691 8.5625 58.4375 C10.87817384 54.96398925 11.15837577 53.52350528 10.5625 49.4375 C6.91636607 45.91290386 2.49907159 45.94835208 -2.328125 45.6484375 C-4.4375 45.4375 -4.4375 45.4375 -5.4375 44.4375 C-5.51008946 42.25110547 -5.52123783 40.06249611 -5.5 37.875 C-5.49097656 36.67746094 -5.48195313 35.47992188 -5.47265625 34.24609375 C-5.46105469 33.31925781 -5.44945312 32.39242187 -5.4375 31.4375 C-4.75042969 31.41171875 -4.06335938 31.3859375 -3.35546875 31.359375 C-2.45441406 31.30265625 -1.55335938 31.2459375 -0.625 31.1875 C0.26832031 31.14109375 1.16164063 31.0946875 2.08203125 31.046875 C4.67200527 30.63725708 4.67200527 30.63725708 6.359375 28.64453125 C8.3590613 24.97627553 8.02333638 22.58502745 7.5625 18.4375 C5.44220032 16.30267772 4.06858976 15.51905001 1.08984375 15.0390625 C-0.19212891 15.05066406 -0.19212891 15.05066406 -1.5 15.0625 C-2.35722656 15.05476563 -3.21445312 15.04703125 -4.09765625 15.0390625 C-6.98280304 15.53035628 -7.74900841 16.06258898 -9.4375 18.4375 C-10.0975 20.4175 -10.7575 22.3975 -11.4375 24.4375 C-18.3675 23.9425 -18.3675 23.9425 -25.4375 23.4375 C-25.8803702 13.54673218 -25.8803702 13.54673218 -22.4375 9.4375 C-15.80111428 2.73252115 -9.37941896 -0.1332274 0 0 Z " fill="#0D161A" transform="translate(312.4375,79.5625)"/>
<path d="M0 0 C8.13751205 4.12418867 13.27540203 9.52339747 16.8671875 17.890625 C18.38323509 28.55349302 16.15383425 36.175096 9.8046875 44.640625 C2.86968547 49.95254144 -4.53036122 54.03601873 -13.46484375 53.46875 C-21.17398062 51.79824889 -26.62438845 47.19708016 -30.953125 40.77734375 C-31.34242188 40.15472656 -31.73171875 39.53210938 -32.1328125 38.890625 C-32.7309375 37.983125 -33.3290625 37.075625 -33.9453125 36.140625 C-36.99208183 30.36779889 -37.33617634 22.85141112 -35.44921875 16.640625 C-32.06126904 9.4429891 -26.96655835 3.39441078 -19.8125 -0.21875 C-13.26535262 -2.39476983 -6.49049683 -2.29838042 0 0 Z " fill="#0F161A" transform="translate(424.1328125,212.109375)"/>
<path d="M0 0 C3.9290625 -0.0309375 3.9290625 -0.0309375 7.9375 -0.0625 C8.7637085 -0.071604 9.58991699 -0.08070801 10.44116211 -0.09008789 C12.29433759 -0.09723945 14.14749308 -0.0502852 16 0 C17 1 17 1 17.11352539 2.94946289 C17.10828857 3.7821167 17.10305176 4.61477051 17.09765625 5.47265625 C17.09443359 6.37177734 17.09121094 7.27089844 17.08789062 8.19726562 C17.07532227 9.61555664 17.07532227 9.61555664 17.0625 11.0625 C17.05798828 12.01189453 17.05347656 12.96128906 17.04882812 13.93945312 C17.0370011 16.29303065 17.02052025 18.64648477 17 21 C17.60062256 20.99476318 18.20124512 20.98952637 18.82006836 20.98413086 C21.52586838 20.96341986 24.23165177 20.95035875 26.9375 20.9375 C27.88302734 20.92912109 28.82855469 20.92074219 29.80273438 20.91210938 C31.15141602 20.90727539 31.15141602 20.90727539 32.52734375 20.90234375 C33.77632446 20.89448853 33.77632446 20.89448853 35.05053711 20.88647461 C37 21 37 21 38 22 C38.09981214 24.6773138 38.13879875 27.32304175 38.125 30 C38.13080078 31.12535156 38.13080078 31.12535156 38.13671875 32.2734375 C38.12661053 37.87338947 38.12661053 37.87338947 37 39 C35.43827255 39.08685603 33.87270656 39.10702219 32.30859375 39.09765625 C31.36435547 39.09443359 30.42011719 39.09121094 29.44726562 39.08789062 C28.45404297 39.07951172 27.46082031 39.07113281 26.4375 39.0625 C25.44041016 39.05798828 24.44332031 39.05347656 23.41601562 39.04882812 C20.94395151 39.03700007 18.47200482 39.02051849 16 39 C16.33 39.66 16.66 40.32 17 41 C17.09825199 43.84352821 17.13900483 46.65702042 17.125 49.5 C17.13080078 50.67755859 17.13080078 50.67755859 17.13671875 51.87890625 C17.12665394 57.74669213 17.12665394 57.74669213 16 60 C11.05 60 6.1 60 1 60 C-0.17426264 57.65147472 -0.11508173 56.26225935 -0.09765625 53.6484375 C-0.09443359 52.79765625 -0.09121094 51.946875 -0.08789062 51.0703125 C-0.07951172 50.18085938 -0.07113281 49.29140625 -0.0625 48.375 C-0.05798828 47.4778125 -0.05347656 46.580625 -0.04882812 45.65625 C-0.03702591 43.43743352 -0.02056155 41.21874982 0 39 C-0.85549438 39.00785522 -0.85549438 39.00785522 -1.72827148 39.01586914 C-4.29800323 39.03658221 -6.86771747 39.0496419 -9.4375 39.0625 C-10.33533203 39.07087891 -11.23316406 39.07925781 -12.15820312 39.08789062 C-13.43920898 39.09272461 -13.43920898 39.09272461 -14.74609375 39.09765625 C-15.53685303 39.10289307 -16.3276123 39.10812988 -17.14233398 39.11352539 C-19 39 -19 39 -20 38 C-20.07325436 35.3013095 -20.09222351 32.63497444 -20.0625 29.9375 C-20.041875 27.318125 -20.02125 24.69875 -20 22 C-13.4 22 -6.8 22 0 22 C0 14.74 0 7.48 0 0 Z " fill="#0E161A" transform="translate(118,89)"/>
<path d="M0 0 C1.08152344 -0.01417969 2.16304687 -0.02835938 3.27734375 -0.04296875 C6.0625 0.1875 6.0625 0.1875 8.0625 2.1875 C8.20747985 4.76814129 8.24927545 7.23693884 8.1875 9.8125 C8.17847656 10.51890625 8.16945312 11.2253125 8.16015625 11.953125 C8.13657603 13.69806098 8.10070461 15.44282295 8.0625 17.1875 C9.19429687 17.16429687 10.32609375 17.14109375 11.4921875 17.1171875 C12.97395175 17.09843099 14.45572312 17.08023066 15.9375 17.0625 C16.68386719 17.04574219 17.43023437 17.02898437 18.19921875 17.01171875 C20.15444461 16.9941041 22.10992021 17.08429811 24.0625 17.1875 C26.0625 19.1875 26.0625 19.1875 26.29296875 21.97265625 C26.27878906 23.05417969 26.26460937 24.13570312 26.25 25.25 C26.24355469 26.33410156 26.23710937 27.41820312 26.23046875 28.53515625 C26.0625 31.1875 26.0625 31.1875 25.0625 32.1875 C23.71982587 32.27381874 22.37275678 32.29456473 21.02734375 32.28515625 C20.21845703 32.28193359 19.40957031 32.27871094 18.57617188 32.27539062 C17.72603516 32.26701172 16.87589844 32.25863281 16 32.25 C15.14599609 32.24548828 14.29199219 32.24097656 13.41210938 32.23632812 C11.29554337 32.22450373 9.17901315 32.20656769 7.0625 32.1875 C7.07410156 33.40308594 7.08570313 34.61867187 7.09765625 35.87109375 C7.10703278 37.45572764 7.11613313 39.04036318 7.125 40.625 C7.13337891 41.42744141 7.14175781 42.22988281 7.15039062 43.05664062 C7.1590143 45.10045221 7.1147815 47.14433902 7.0625 49.1875 C5.32400372 50.92599628 2.9838363 50.35966296 0.625 50.375 C-0.36371094 50.38917969 -1.35242188 50.40335937 -2.37109375 50.41796875 C-4.9375 50.1875 -4.9375 50.1875 -6.9375 48.1875 C-7.08257695 45.44264407 -7.12402423 42.80269457 -7.0625 40.0625 C-7.05347656 39.30839844 -7.04445313 38.55429688 -7.03515625 37.77734375 C-7.0115687 35.91392746 -6.97569719 34.05067407 -6.9375 32.1875 C-8.14148438 32.21070313 -9.34546875 32.23390625 -10.5859375 32.2578125 C-12.16145215 32.27656863 -13.73697348 32.29476899 -15.3125 32.3125 C-16.1065625 32.32925781 -16.900625 32.34601563 -17.71875 32.36328125 C-19.79242015 32.38085473 -21.86633241 32.29085168 -23.9375 32.1875 C-25.9375 30.1875 -25.9375 30.1875 -26.16796875 27.62109375 C-26.15378906 26.63238281 -26.13960938 25.64367187 -26.125 24.625 C-26.11855469 23.63371094 -26.11210938 22.64242187 -26.10546875 21.62109375 C-25.9375 19.1875 -25.9375 19.1875 -24.9375 18.1875 C-23.59482587 18.10118126 -22.24775678 18.08043527 -20.90234375 18.08984375 C-20.09345703 18.09306641 -19.28457031 18.09628906 -18.45117188 18.09960938 C-17.60103516 18.10798828 -16.75089844 18.11636719 -15.875 18.125 C-15.02099609 18.12951172 -14.16699219 18.13402344 -13.28710938 18.13867188 C-11.17054337 18.15049627 -9.05401315 18.16843231 -6.9375 18.1875 C-6.94910156 16.97191406 -6.96070312 15.75632813 -6.97265625 14.50390625 C-6.98203278 12.91927236 -6.99113313 11.33463682 -7 9.75 C-7.00837891 8.94755859 -7.01675781 8.14511719 -7.02539062 7.31835938 C-7.0340143 5.27454779 -6.9897815 3.23066098 -6.9375 1.1875 C-5.13003866 -0.61996134 -2.43304219 0.01446517 0 0 Z " fill="#0B1216" transform="translate(118.9375,212.8125)"/>
<path d="M0 0 C1.97265625 0.265625 1.97265625 0.265625 4.97265625 2.265625 C5.19403018 4.89259564 5.2542765 7.27456464 5.16015625 9.890625 C5.13985352 10.95023437 5.13985352 10.95023437 5.11914062 12.03125 C5.08376665 13.77636628 5.02995846 15.52109108 4.97265625 17.265625 C6.52726562 17.21341797 6.52726562 17.21341797 8.11328125 17.16015625 C9.48305667 17.13201018 10.85284966 17.10471089 12.22265625 17.078125 C12.90457031 17.05298828 13.58648437 17.02785156 14.2890625 17.00195312 C17.38234407 16.95690534 19.64512304 17.10237829 22.43359375 18.4921875 C24.38362637 20.7391794 24.45430582 21.88556633 24.34765625 24.828125 C24.33476562 25.61316406 24.321875 26.39820313 24.30859375 27.20703125 C23.97265625 29.265625 23.97265625 29.265625 21.97265625 31.265625 C19.06330045 31.41080244 16.25271025 31.45193296 13.34765625 31.390625 C12.54585937 31.38160156 11.7440625 31.37257813 10.91796875 31.36328125 C8.93607102 31.33968723 6.95432644 31.30381565 4.97265625 31.265625 C4.99585938 32.39742188 5.0190625 33.52921875 5.04296875 34.6953125 C5.06172526 36.17707675 5.07992559 37.65884812 5.09765625 39.140625 C5.11441406 39.88699219 5.13117188 40.63335937 5.1484375 41.40234375 C5.16605215 43.35756961 5.07585814 45.31304521 4.97265625 47.265625 C2.97265625 49.265625 2.97265625 49.265625 0.87890625 49.53125 C0.08484375 49.52609375 -0.70921875 49.5209375 -1.52734375 49.515625 C-2.32140625 49.52078125 -3.11546875 49.5259375 -3.93359375 49.53125 C-6.02734375 49.265625 -6.02734375 49.265625 -8.02734375 47.265625 C-8.1728625 44.51241025 -8.21356488 41.88799078 -8.15234375 39.140625 C-8.11109375 36.541875 -8.06984375 33.943125 -8.02734375 31.265625 C-13.96734375 31.265625 -19.90734375 31.265625 -26.02734375 31.265625 C-27.27804176 28.76422898 -27.16036842 26.99169809 -27.15234375 24.203125 C-27.15492187 23.30464844 -27.1575 22.40617187 -27.16015625 21.48046875 C-27.02734375 19.265625 -27.02734375 19.265625 -26.02734375 18.265625 C-23.16856466 18.02861261 -20.32851078 17.84343318 -17.46484375 17.703125 C-16.65853516 17.65994141 -15.85222656 17.61675781 -15.02148438 17.57226562 C-13.0236557 17.46587238 -11.02552305 17.36521612 -9.02734375 17.265625 C-8.97835937 16.20601563 -8.929375 15.14640625 -8.87890625 14.0546875 C-8.80387666 12.66664003 -8.7283289 11.27862049 -8.65234375 9.890625 C-8.6059375 8.84261719 -8.6059375 8.84261719 -8.55859375 7.7734375 C-8.16422084 0.93764046 -6.80953895 0.05091244 0 0 Z " fill="#080E14" transform="translate(121.02734375,418.734375)"/>
<path d="M0 0 C2.05859375 -0.36328125 2.05859375 -0.36328125 4.4375 -0.3125 C5.21996094 -0.30863281 6.00242187 -0.30476563 6.80859375 -0.30078125 C9 0 9 0 12 2 C12.29296875 5.2578125 12.29296875 5.2578125 12.1875 9.125 C12.14689453 11.04699219 12.14689453 11.04699219 12.10546875 13.0078125 C12.07066406 13.99523437 12.03585938 14.98265625 12 16 C13.82337891 15.98259766 13.82337891 15.98259766 15.68359375 15.96484375 C17.26822764 15.95546722 18.85286318 15.94636687 20.4375 15.9375 C21.23994141 15.92912109 22.04238281 15.92074219 22.86914062 15.91210938 C24.91295221 15.9034857 26.95683902 15.9477185 29 16 C30.73849628 17.73849628 30.17216296 20.0786637 30.1875 22.4375 C30.20167969 23.42621094 30.21585938 24.41492188 30.23046875 25.43359375 C30 28 30 28 28 30 C25.25514407 30.14507695 22.61519457 30.18652423 19.875 30.125 C19.12089844 30.11597656 18.36679688 30.10695313 17.58984375 30.09765625 C15.72642746 30.0740687 13.86317407 30.03819719 12 30 C12.01160156 31.14339844 12.02320313 32.28679687 12.03515625 33.46484375 C12.04453288 34.95572754 12.05363321 36.44661309 12.0625 37.9375 C12.07087891 38.69224609 12.07925781 39.44699219 12.08789062 40.22460938 C12.09652441 42.14994313 12.05224333 44.07535581 12 46 C11 47 11 47 8.53125 47.1328125 C7.03078125 47.12894531 7.03078125 47.12894531 5.5 47.125 C4.4996875 47.12757813 3.499375 47.13015625 2.46875 47.1328125 C0 47 0 47 -1 46 C-1.23653523 43.47403741 -1.42173692 40.96892793 -1.5625 38.4375 C-1.60568359 37.72658203 -1.64886719 37.01566406 -1.69335938 36.28320312 C-1.79971777 34.52238088 -1.90038846 32.7612168 -2 31 C-3.13179687 30.95101563 -4.26359375 30.90203125 -5.4296875 30.8515625 C-6.91148339 30.77653486 -8.393253 30.70098703 -9.875 30.625 C-10.62136719 30.5940625 -11.36773437 30.563125 -12.13671875 30.53125 C-17.7734375 30.2265625 -17.7734375 30.2265625 -20 28 C-20.265625 25.94140625 -20.265625 25.94140625 -20.25 23.5625 C-20.25515625 22.78003906 -20.2603125 21.99757813 -20.265625 21.19140625 C-20 19 -20 19 -18 16 C-15.57421875 15.671875 -15.57421875 15.671875 -12.6875 15.75 C-11.74261719 15.76546875 -10.79773438 15.7809375 -9.82421875 15.796875 C-7.13697257 15.99014858 -4.62514858 16.40707027 -2 17 C-2.02320312 16.02417969 -2.04640625 15.04835938 -2.0703125 14.04296875 C-2.08835937 12.77066406 -2.10640625 11.49835938 -2.125 10.1875 C-2.14820312 8.92292969 -2.17140625 7.65835937 -2.1953125 6.35546875 C-2 3 -2 3 0 0 Z " fill="#0B1117" transform="translate(114,316)"/>
<path d="M0 0 C7.91886714 -0.02314476 15.8377202 -0.040926 23.75661278 -0.05181217 C27.43345711 -0.05703632 31.11027834 -0.0641255 34.78710938 -0.07543945 C38.3337896 -0.08628493 41.88044757 -0.09228037 45.4271431 -0.09487724 C46.78196183 -0.09672849 48.13677931 -0.10034338 49.49158859 -0.10573006 C51.38549365 -0.11296238 53.27942098 -0.11340824 55.17333984 -0.11352539 C56.79216568 -0.11685631 56.79216568 -0.11685631 58.44369507 -0.12025452 C61 0 61 0 63 1 C63.05459773 2.56210161 63.09306101 4.12477089 63.125 5.6875 C63.14820313 6.55761719 63.17140625 7.42773438 63.1953125 8.32421875 C63 11 63 11 61 16 C41.2 16 21.4 16 1 16 C-0.90521123 12.18957754 -1.25371444 10.90806147 -1.1875 6.875 C-1.17783203 5.57175781 -1.17783203 5.57175781 -1.16796875 4.2421875 C-1 2 -1 2 0 0 Z " fill="#081216" transform="translate(183,97)"/>
<path d="M0 0 C2.51161194 -0.36749268 2.51161194 -0.36749268 5.71899414 -0.35644531 C6.9168605 -0.35944641 8.11472687 -0.36244751 9.34889221 -0.36553955 C10.64785934 -0.35319275 11.94682648 -0.34084595 13.28515625 -0.328125 C14.62511483 -0.32506819 15.96507659 -0.32319147 17.30503845 -0.32244873 C20.11372021 -0.3178436 22.92211557 -0.30340895 25.73071289 -0.28125 C29.337986 -0.25294009 32.94503362 -0.24203613 36.55240726 -0.2375679 C39.31898777 -0.23341926 42.08552229 -0.22360692 44.85207939 -0.21169281 C46.83139904 -0.2031948 48.810727 -0.19671234 50.79005432 -0.19024658 C51.98476852 -0.18063904 53.17948273 -0.17103149 54.41040039 -0.16113281 C55.46804092 -0.15430481 56.52568146 -0.14747681 57.6153717 -0.14044189 C60 0 60 0 61 1 C61.0991757 3.14394519 61.1297015 5.29126732 61.125 7.4375 C61.12886719 9.19900391 61.12886719 9.19900391 61.1328125 10.99609375 C61 14 61 14 60 16 C54.3298371 16.02509434 48.65970794 16.04304242 42.98950195 16.05493164 C41.06859777 16.05989853 39.14769724 16.0666743 37.22680664 16.07543945 C27.58408316 16.11827361 17.9435159 16.11475853 8.30859375 15.68359375 C7.60799332 15.66136246 6.90739288 15.63913116 6.18556213 15.6162262 C3.33241408 15.4600591 1.40904727 15.29777526 -0.93408203 13.59204102 C-2.35545226 11.4691012 -2.36749212 10.03809792 -2.3125 7.5 C-2.30863281 6.7265625 -2.30476562 5.953125 -2.30078125 5.15625 C-2 3 -2 3 0 0 Z " fill="#0C1C24" transform="translate(184,125)"/>
<path d="M0 0 C0.79196274 0.00142502 1.58392548 0.00285004 2.39988708 0.00431824 C3.74621971 -0.00029671 3.74621971 -0.00029671 5.11975098 -0.00500488 C6.09061142 0.00218063 7.06147186 0.00936615 8.06175232 0.01676941 C9.05537277 0.01722763 10.04899323 0.01768585 11.07272339 0.01815796 C13.17511691 0.02118206 15.27750816 0.02907306 17.37986755 0.04142761 C20.61049776 0.05968251 23.84084156 0.06193736 27.07151794 0.06169128 C29.1099319 0.06660636 31.1483439 0.07243463 33.18675232 0.07926941 C34.15963699 0.08038223 35.13252167 0.08149506 36.1348877 0.0826416 C37.02929062 0.08902145 37.92369354 0.09540131 38.84519958 0.10197449 C39.63636673 0.10578629 40.42753387 0.10959808 41.24267578 0.11352539 C43.05784607 0.24723816 43.05784607 0.24723816 44.05784607 1.24723816 C44.18341769 3.55717198 44.23360336 5.87142352 44.24534607 8.18473816 C44.25952576 9.4518866 44.27370544 10.71903503 44.28831482 12.02458191 C44.05784607 15.24723816 44.05784607 15.24723816 42.05784607 17.24723816 C40.16038513 17.50793457 40.16038513 17.50793457 37.82347107 17.52189636 C36.51201111 17.53619438 36.51201111 17.53619438 35.17405701 17.55078125 C33.75528259 17.54941414 33.75528259 17.54941414 32.30784607 17.54801941 C30.85426697 17.5544471 30.85426697 17.5544471 29.37132263 17.56100464 C27.32022382 17.56675374 25.26910461 17.56724395 23.21800232 17.56291199 C20.07051534 17.55975088 16.9239668 17.58320809 13.77659607 17.60856628 C11.78701393 17.61083901 9.79742925 17.6115429 7.80784607 17.61051941 C6.86199646 17.61972916 5.91614685 17.6289389 4.94163513 17.63842773 C4.06732849 17.63219894 3.19302185 17.62597015 2.29222107 17.61955261 C1.13544861 17.62049675 1.13544861 17.62049675 -0.04469299 17.62145996 C-0.6708551 17.49796677 -1.29701721 17.37447357 -1.94215393 17.24723816 C-4.25805682 13.77338383 -4.21207228 12.2829381 -4.19215393 8.18473816 C-4.19731018 7.1212616 -4.20246643 6.05778503 -4.20777893 4.96208191 C-3.89580745 1.77354988 -3.33030338 0.42395099 0 0 Z " fill="#0A1115" transform="translate(197.94215393066406,435.7527618408203)"/>
<path d="M0 0 C1.37163551 -0.00472824 1.37163551 -0.00472824 2.77098083 -0.009552 C4.26311852 -0.00651566 4.26311852 -0.00651566 5.78540039 -0.00341797 C6.80026016 -0.00437469 7.81511993 -0.00533142 8.86073303 -0.00631714 C11.01197369 -0.00699914 13.16321639 -0.00514345 15.31445312 -0.00097656 C18.61536266 0.00436589 21.91613578 -0.00091804 25.21704102 -0.00732422 C27.30232778 -0.00666333 29.38761445 -0.00538195 31.47290039 -0.00341797 C32.46563461 -0.0054422 33.45836884 -0.00746643 34.48118591 -0.009552 C35.39876175 -0.00639984 36.31633759 -0.00324768 37.26171875 0 C38.07144638 0.00079559 38.88117401 0.00159119 39.71543884 0.00241089 C41.69555664 0.12939453 41.69555664 0.12939453 43.69555664 1.12939453 C43.72241602 3.2751609 43.74188752 5.42102098 43.75805664 7.56689453 C43.7696582 8.76185547 43.78125977 9.95681641 43.79321289 11.18798828 C43.69555664 14.12939453 43.69555664 14.12939453 42.69555664 15.12939453 C41.25265877 15.22235269 39.8052588 15.24685966 38.359375 15.24291992 C36.97805641 15.24280663 36.97805641 15.24280663 35.5688324 15.24269104 C34.56779984 15.23752975 33.56676727 15.23236847 32.53540039 15.22705078 C31.51579727 15.22563583 30.49619415 15.22422089 29.44569397 15.22276306 C26.17478557 15.2171455 22.90394451 15.20459003 19.63305664 15.19189453 C17.42146908 15.18688179 15.20988046 15.1823185 12.99829102 15.17822266 C7.56402307 15.16717037 2.12979467 15.15041516 -3.30444336 15.12939453 C-4.74726802 11.69120449 -5.56105415 9.12394309 -5.49194336 5.37939453 C-5.48549805 4.60080078 -5.47905273 3.82220703 -5.47241211 3.02001953 C-5.14958182 -0.61369817 -3.17828724 0.00312588 0 0 Z " fill="#0B1215" transform="translate(297.304443359375,420.87060546875)"/>
<path d="M0 0 C1.28753174 0.00607269 1.28753174 0.00607269 2.60107422 0.01226807 C3.92147705 0.00939789 3.92147705 0.00939789 5.26855469 0.00646973 C7.13135056 0.00510755 8.99415591 0.00880625 10.85693359 0.01715088 C13.71457158 0.02785 16.57158088 0.01725675 19.42919922 0.00445557 C21.23649228 0.00577716 23.04378495 0.00833954 24.85107422 0.01226807 C25.70942871 0.0082196 26.5677832 0.00417114 27.45214844 0 C33.49615677 0.04797562 33.49615677 0.04797562 35.72607422 2.27789307 C35.95654297 5.28179932 35.95654297 5.28179932 35.91357422 8.84039307 C35.90712891 10.01730713 35.90068359 11.19422119 35.89404297 12.40679932 C35.72607422 15.27789307 35.72607422 15.27789307 34.72607422 16.27789307 C31.71970467 16.40386627 28.73756892 16.46658161 25.72998047 16.48101807 C24.82610092 16.48671814 23.92222137 16.49241821 22.99095154 16.49829102 C21.07511573 16.50775535 19.15926353 16.51428066 17.2434082 16.51812744 C14.30440054 16.52784076 11.36608965 16.55885354 8.42724609 16.59039307 C6.56982839 16.59692195 4.71240567 16.60217287 2.85498047 16.60601807 C1.52993248 16.62453827 1.52993248 16.62453827 0.17811584 16.64343262 C-2.29907227 16.63433838 -2.29907227 16.63433838 -6.27392578 16.27789307 C-8.51626587 12.91438294 -8.54490794 11.6547925 -8.52392578 7.71539307 C-8.52908203 6.744729 -8.53423828 5.77406494 -8.53955078 4.77398682 C-7.97135718 -0.56536184 -4.56722291 0.03625332 0 0 Z " fill="#111B1F" transform="translate(204.27392578125,228.72210693359375)"/>
<path d="M0 0 C1.43653931 -0.00472824 1.43653931 -0.00472824 2.90209961 -0.009552 C3.94374268 -0.00752777 4.98538574 -0.00550354 6.05859375 -0.00341797 C7.12021729 -0.00437469 8.18184082 -0.00533142 9.27563477 -0.00631714 C11.52522847 -0.00699911 13.77482412 -0.00514366 16.02441406 -0.00097656 C19.48116446 0.00437143 22.93778492 -0.00092101 26.39453125 -0.00732422 C28.57421904 -0.00666344 30.75390675 -0.00538228 32.93359375 -0.00341797 C34.49605835 -0.00645432 34.49605835 -0.00645432 36.09008789 -0.009552 C37.04778076 -0.00639984 38.00547363 -0.00324768 38.9921875 0 C39.83966553 0.00079559 40.68714355 0.00159119 41.56030273 0.00241089 C43.49609375 0.12939453 43.49609375 0.12939453 44.49609375 1.12939453 C44.62097133 2.93866734 44.67180221 4.7533556 44.68359375 6.56689453 C44.69777344 7.55560547 44.71195312 8.54431641 44.7265625 9.56298828 C44.49609375 12.12939453 44.49609375 12.12939453 42.49609375 14.12939453 C40.52270508 14.38336182 40.52270508 14.38336182 38.078125 14.38818359 C36.70660278 14.39764008 36.70660278 14.39764008 35.30737305 14.4072876 C33.82297729 14.4012149 33.82297729 14.4012149 32.30859375 14.39501953 C31.29514893 14.39693298 30.2817041 14.39884644 29.23754883 14.40081787 C27.09228263 14.40218044 24.94700822 14.398479 22.80175781 14.39013672 C19.50957803 14.37943835 16.21794397 14.39002972 12.92578125 14.40283203 C10.84505087 14.40151045 8.76432084 14.39894808 6.68359375 14.39501953 C5.69399658 14.39906799 4.70439941 14.40311646 3.68481445 14.4072876 C2.77046631 14.40098328 1.85611816 14.39467896 0.9140625 14.38818359 C0.10735107 14.38659241 -0.69936035 14.38500122 -1.53051758 14.38336182 C-3.50390625 14.12939453 -3.50390625 14.12939453 -5.50390625 12.12939453 C-5.734375 9.56298828 -5.734375 9.56298828 -5.69140625 6.56689453 C-5.68496094 5.57560547 -5.67851562 4.58431641 -5.671875 3.56298828 C-5.38390177 -0.60927498 -3.74842334 0.00351894 0 0 Z " fill="#0B1316" transform="translate(297.50390625,317.87060546875)"/>
<path d="M0 0 C0.91119598 -0.00637985 1.82239197 -0.0127597 2.76119995 -0.01933289 C3.75282135 -0.02044571 4.74444275 -0.02155853 5.76611328 -0.02270508 C6.77860138 -0.02603348 7.79108948 -0.02936188 8.83425903 -0.03279114 C10.98129826 -0.03786529 13.12834541 -0.04019931 15.27539062 -0.04003906 C18.56539906 -0.04222237 21.85507065 -0.06036428 25.14501953 -0.0793457 C27.22704963 -0.08228011 29.30908133 -0.08426459 31.39111328 -0.08520508 C32.37868622 -0.09239059 33.36625916 -0.09957611 34.38375854 -0.10697937 C35.760009 -0.10236443 35.760009 -0.10236443 37.1640625 -0.09765625 C38.37532303 -0.09979378 38.37532303 -0.09979378 39.61105347 -0.10197449 C41.71142578 0.14526367 41.71142578 0.14526367 44.71142578 2.14526367 C45.10986328 4.45776367 45.10986328 4.45776367 45.08642578 7.14526367 C45.09802734 8.47557617 45.09802734 8.47557617 45.10986328 9.83276367 C44.97837891 10.59588867 44.84689453 11.35901367 44.71142578 12.14526367 C41.57811967 14.23413441 40.84128504 14.39901708 37.27172852 14.41992188 C36.37747665 14.42945389 35.48322479 14.4389859 34.56187439 14.44880676 C33.59931229 14.44789536 32.63675018 14.44698395 31.64501953 14.44604492 C30.6551857 14.45033005 29.66535187 14.45461517 28.64552307 14.45903015 C26.55332199 14.46477328 24.46110095 14.46527384 22.36889648 14.4609375 C19.15785972 14.45777248 15.94773955 14.4812547 12.73681641 14.5065918 C10.70621862 14.50886418 8.67561834 14.50956857 6.64501953 14.50854492 C5.19814003 14.52235954 5.19814003 14.52235954 3.72203064 14.53645325 C2.83093094 14.53022446 1.93983124 14.52399567 1.02172852 14.51757812 C0.23579819 14.51820755 -0.55013214 14.51883698 -1.35987854 14.51948547 C-1.99634811 14.39599228 -2.63281769 14.27249908 -3.28857422 14.14526367 C-5.47698776 10.86264336 -5.53712087 9.8273547 -5.47607422 6.02026367 C-5.46962891 5.13081055 -5.46318359 4.24135742 -5.45654297 3.32495117 C-5.15823785 -0.54607808 -3.45115252 0.01632316 0 0 Z " fill="#121A1F" transform="translate(297.28857421875,344.854736328125)"/>
<path d="M0 0 C0.87760986 -0.00315216 1.75521973 -0.00630432 2.65942383 -0.009552 C3.61357178 -0.00752777 4.56771973 -0.00550354 5.55078125 -0.00341797 C6.52362061 -0.00437469 7.49645996 -0.00533142 8.4987793 -0.00631714 C10.56005925 -0.00699905 12.62134133 -0.00514399 14.68261719 -0.00097656 C17.84965813 0.00437153 21.01655725 -0.00092119 24.18359375 -0.00732422 C26.1809899 -0.00666344 28.17838596 -0.00538228 30.17578125 -0.00341797 C31.1299292 -0.0054422 32.08407715 -0.00746643 33.06713867 -0.009552 C34.38355347 -0.00482376 34.38355347 -0.00482376 35.7265625 0 C36.50298096 0.00079559 37.27939941 0.00159119 38.0793457 0.00241089 C39.86328125 0.12939453 39.86328125 0.12939453 40.86328125 1.12939453 C40.96221065 3.2942025 40.99299225 5.46233238 40.98828125 7.62939453 C40.99214844 9.40830078 40.99214844 9.40830078 40.99609375 11.22314453 C40.86328125 14.12939453 40.86328125 14.12939453 39.86328125 15.12939453 C38.52334509 15.23240867 37.1781016 15.26787906 35.83422852 15.2746582 C34.9798671 15.28103806 34.12550568 15.28741791 33.24525452 15.29399109 C32.3161174 15.29510391 31.38698029 15.29621674 30.4296875 15.29736328 C29.48141586 15.30069168 28.53314423 15.30402008 27.55613708 15.30744934 C25.54613736 15.31252272 23.53612917 15.31485754 21.52612305 15.31469727 C18.44240506 15.31688275 15.35904519 15.33503136 12.27539062 15.35400391 C10.32682415 15.35693788 8.37825596 15.35892265 6.4296875 15.35986328 C5.03901817 15.37064156 5.03901817 15.37064156 3.62025452 15.38163757 C2.76274094 15.37856094 1.90522736 15.37548431 1.02172852 15.37231445 C0.26529556 15.37373947 -0.49113739 15.37516449 -1.27049255 15.37663269 C-3.13671875 15.12939453 -3.13671875 15.12939453 -5.13671875 13.12939453 C-5.3671875 10.34423828 -5.3671875 10.34423828 -5.32421875 7.06689453 C-5.31777344 5.98279297 -5.31132812 4.89869141 -5.3046875 3.78173828 C-5.03841002 -0.42296885 -3.81914399 0.00391346 0 0 Z " fill="#131E22" transform="translate(298.13671875,228.87060546875)"/>
<path d="M0 0 C5.39346988 -0.02464849 10.78690725 -0.04283531 16.18041992 -0.05493164 C18.01668875 -0.05997231 19.85295354 -0.06680477 21.68920898 -0.07543945 C24.32276401 -0.08751672 26.95626616 -0.09323081 29.58984375 -0.09765625 C30.41588608 -0.10281754 31.24192841 -0.10797882 32.09300232 -0.11329651 C34.06236368 -0.11349205 36.03161614 -0.06204152 38 0 C39.75559942 1.75559942 39.13221919 4.03582442 39.13671875 6.37109375 C39.13285156 7.07363281 39.12898438 7.77617187 39.125 8.5 C39.13080078 9.55380859 39.13080078 9.55380859 39.13671875 10.62890625 C39.12661378 15.87338622 39.12661378 15.87338622 38 17 C35.1156618 17.08865208 32.25537842 17.11521296 29.37109375 17.09765625 C28.07474754 17.09553383 28.07474754 17.09553383 26.75221252 17.09336853 C23.98060708 17.08775239 21.2090812 17.07519719 18.4375 17.0625 C16.5631522 17.05748708 14.68880315 17.05292381 12.81445312 17.04882812 C8.20960456 17.03777772 3.60481579 17.0205023 -1 17 C-1.02691685 14.54159395 -1.04679802 12.08348118 -1.0625 9.625 C-1.07087891 8.92632812 -1.07925781 8.22765625 -1.08789062 7.5078125 C-1.11328125 2.2265625 -1.11328125 2.2265625 0 0 Z " fill="#141D21" transform="translate(200,332)"/>
<path d="M0 0 C1.22244667 0.00333092 1.22244667 0.00333092 2.46958923 0.00672913 C3.39046829 0.00680466 4.31134735 0.00688019 5.26013184 0.00695801 C6.2611644 0.01211929 7.26219696 0.01728058 8.29356384 0.02259827 C9.31316696 0.02401321 10.33277008 0.02542816 11.38327026 0.02688599 C14.65417867 0.03250355 17.92501972 0.04505902 21.19590759 0.05775452 C23.40749515 0.06276725 25.61908377 0.06733055 27.83067322 0.07142639 C33.26494116 0.08247868 38.69916957 0.09923389 44.13340759 0.12025452 C45.36748966 2.58841866 45.33538338 4.36686652 45.38340759 7.12025452 C45.40918884 8.00712952 45.43497009 8.89400452 45.46153259 9.80775452 C45.35325134 10.57087952 45.24497009 11.33400452 45.13340759 12.12025452 C42.07197878 14.16120706 41.43599263 14.37314398 37.98497009 14.39491272 C36.73852722 14.40921074 36.73852722 14.40921074 35.46690369 14.42379761 C34.57309998 14.4228862 33.67929626 14.42197479 32.75840759 14.42103577 C31.83753357 14.42532089 30.91665955 14.42960602 29.96788025 14.434021 C28.02111127 14.4397634 26.07432083 14.44026521 24.12754822 14.43592834 C21.14475552 14.43276655 18.16295276 14.45623487 15.18028259 14.48158264 C13.28965885 14.48385541 11.39903243 14.48455923 9.50840759 14.48353577 C8.61460388 14.49274551 7.72080017 14.50195526 6.7999115 14.51144409 C5.55346863 14.50210091 5.55346863 14.50210091 4.28184509 14.49256897 C3.55143005 14.49319839 2.82101501 14.49382782 2.06846619 14.49447632 C-0.4321731 14.01087663 -1.32449161 13.11271307 -2.86659241 11.12025452 C-3.19471741 8.67494202 -3.19471741 8.67494202 -3.11659241 5.99525452 C-3.10112366 5.10580139 -3.08565491 4.21634827 -3.06971741 3.29994202 C-2.81613957 0.5788568 -2.73322785 0.17608718 0 0 Z " fill="#090E11" transform="translate(393.86659240722656,319.87974548339844)"/>
<path d="M0 0 C0.83272934 0.00222061 1.66545868 0.00444122 2.52342224 0.00672913 C3.46432205 0.00680466 4.40522186 0.00688019 5.37463379 0.00695801 C6.39754013 0.01211929 7.42044647 0.01728058 8.47434998 0.02259827 C9.51614914 0.02401321 10.5579483 0.02542816 11.63131714 0.02688599 C14.97355467 0.03250372 18.31572629 0.04505922 21.65794373 0.05775452 C23.91770839 0.06276723 26.17747409 0.06733053 28.4372406 0.07142639 C33.99000054 0.08247891 39.54271094 0.09975542 45.09544373 0.12025452 C45.09544373 4.08025452 45.09544373 8.04025452 45.09544373 12.12025452 C36.38955163 14.34981225 27.99527796 14.42729675 19.0700531 14.3809967 C16.57306812 14.37015738 14.07678352 14.3810022 11.57981873 14.39369202 C9.99127547 14.39237243 8.40273265 14.38981421 6.81419373 14.38587952 C6.06843079 14.38992798 5.32266785 14.39397644 4.55430603 14.39814758 C-0.67455439 14.3502564 -0.67455439 14.3502564 -2.90455627 12.12025452 C-3.13502502 9.55384827 -3.13502502 9.55384827 -3.09205627 6.55775452 C-3.08561096 5.56646545 -3.07916565 4.57517639 -3.07252502 3.55384827 C-2.83961038 0.17929424 -2.83961038 0.17929424 0 0 Z " fill="#101619" transform="translate(393.90455627441406,424.87974548339844)"/>
<path d="M0 0 C6.81761894 -0.0252689 13.63522589 -0.04283244 20.45288086 -0.05493164 C22.77417451 -0.05997333 25.09546497 -0.06680651 27.41674805 -0.07543945 C30.74528795 -0.08751225 34.07378602 -0.09322979 37.40234375 -0.09765625 C38.44712387 -0.10281754 39.49190399 -0.10797882 40.56834412 -0.11329651 C41.52926468 -0.11337204 42.49018524 -0.11344757 43.48022461 -0.11352539 C44.33071884 -0.115746 45.18121307 -0.11796661 46.05747986 -0.12025452 C48 0 48 0 49 1 C49.1245486 2.64230364 49.17568524 4.29052276 49.1875 5.9375 C49.20167969 6.83339844 49.21585937 7.72929687 49.23046875 8.65234375 C49 11 49 11 47 13 C45.02661133 13.26069641 45.02661133 13.26069641 42.58203125 13.2746582 C41.66768311 13.28419022 40.75333496 13.29372223 39.8112793 13.30354309 C38.32688354 13.30217598 38.32688354 13.30217598 36.8125 13.30078125 C35.79905518 13.30506638 34.78561035 13.3093515 33.74145508 13.31376648 C31.59619902 13.31951609 29.45092346 13.32000542 27.30566406 13.31567383 C24.01333577 13.3125128 20.72190465 13.33596929 17.4296875 13.36132812 C15.34895947 13.36360084 13.26822902 13.36430474 11.1875 13.36328125 C10.19790283 13.372491 9.20830566 13.38170074 8.1887207 13.39118958 C7.27437256 13.38496078 6.36002441 13.37873199 5.41796875 13.37231445 C4.20790161 13.37325859 4.20790161 13.37325859 2.97338867 13.3742218 C1.99656128 13.18898201 1.99656128 13.18898201 1 13 C-1.70238949 8.94641576 -1.22937614 6.81689896 -1 2 C-0.67 1.34 -0.34 0.68 0 0 Z " fill="#091115" transform="translate(293,450)"/>
<path d="M0 0 C1.34137779 -0.00945648 1.34137779 -0.00945648 2.70985413 -0.019104 C3.67241623 -0.01505554 4.63497833 -0.01100708 5.62670898 -0.00683594 C7.11145973 -0.00970612 7.11145973 -0.00970612 8.62620544 -0.01263428 C10.71841689 -0.01399531 12.81063681 -0.01030456 14.90283203 -0.00195312 C18.11371719 0.00875875 21.32404427 -0.00185712 24.53491211 -0.01464844 C26.56551231 -0.01332705 28.59611216 -0.01076509 30.62670898 -0.00683594 C31.59129532 -0.0108844 32.55588165 -0.01493286 33.54969788 -0.019104 C34.44079758 -0.01279968 35.33189728 -0.00649536 36.25 0 C37.42889549 0.00238678 37.42889549 0.00238678 38.63160706 0.00482178 C40.56030273 0.25878906 40.56030273 0.25878906 42.56030273 2.25878906 C42.82592773 4.35253906 42.82592773 4.35253906 42.81030273 6.75878906 C42.81803711 7.94988281 42.81803711 7.94988281 42.82592773 9.16503906 C42.56030273 11.25878906 42.56030273 11.25878906 40.56030273 13.25878906 C38.54222107 13.50602722 38.54222107 13.50602722 36.03466797 13.50170898 C35.09707138 13.50478561 34.15947479 13.50786224 33.19346619 13.5110321 C32.17885818 13.50384659 31.16425018 13.49666107 30.11889648 13.48925781 C28.56187767 13.48857048 28.56187767 13.48857048 26.97340393 13.48786926 C24.77685403 13.48484489 22.58030631 13.47695311 20.38378906 13.46459961 C17.00830551 13.44634586 13.6330961 13.44408985 10.25756836 13.44433594 C8.12800868 13.43942084 5.99845087 13.43359255 3.86889648 13.42675781 C2.34394814 13.42508858 2.34394814 13.42508858 0.78819275 13.42338562 C-0.14625168 13.41700577 -1.08069611 13.41062592 -2.04345703 13.40405273 C-2.87015396 13.40024094 -3.69685089 13.39642914 -4.54859924 13.39250183 C-6.43969727 13.25878906 -6.43969727 13.25878906 -7.43969727 12.25878906 C-7.64282227 10.04394531 -7.64282227 10.04394531 -7.68969727 7.32128906 C-7.71547852 6.42539062 -7.74125977 5.52949219 -7.76782227 4.60644531 C-7.65954102 3.83171875 -7.55125977 3.05699219 -7.43969727 2.25878906 C-4.30085895 0.16623018 -3.57488456 0.00723036 0 0 Z " fill="#0D1419" transform="translate(397.439697265625,448.7412109375)"/>
<path d="M0 0 C0.87430664 -0.00630432 1.74861328 -0.01260864 2.64941406 -0.019104 C4.06818848 -0.01303131 4.06818848 -0.01303131 5.515625 -0.00683594 C6.48467773 -0.00874939 7.45373047 -0.01066284 8.45214844 -0.01263428 C10.50325785 -0.01399673 12.55437586 -0.01029612 14.60546875 -0.00195312 C17.75280039 0.00874547 20.8995612 -0.00184647 24.046875 -0.01464844 C26.0364596 -0.01332685 28.02604384 -0.01076448 30.015625 -0.00683594 C30.96147461 -0.0108844 31.90732422 -0.01493286 32.88183594 -0.019104 C33.75614258 -0.01279968 34.63044922 -0.00649536 35.53125 0 C36.68802246 0.00238678 36.68802246 0.00238678 37.86816406 0.00482178 C39.765625 0.25878906 39.765625 0.25878906 41.765625 2.25878906 C41.99609375 4.38769531 41.99609375 4.38769531 41.953125 6.82128906 C41.94667969 7.62695312 41.94023437 8.43261719 41.93359375 9.26269531 C41.765625 11.25878906 41.765625 11.25878906 40.765625 12.25878906 C39.32272713 12.35174722 37.87532715 12.37625419 36.42944336 12.37231445 C35.04812477 12.37220116 35.04812477 12.37220116 33.63890076 12.37208557 C32.63786819 12.36692429 31.63683563 12.361763 30.60546875 12.35644531 C29.58586563 12.35503036 28.56626251 12.35361542 27.51576233 12.35215759 C24.24485393 12.34654003 20.97401287 12.33398456 17.703125 12.32128906 C15.49153744 12.31627632 13.27994882 12.31171303 11.06835938 12.30761719 C5.63409143 12.2965649 0.19986303 12.27980969 -5.234375 12.25878906 C-6.34882998 10.02987911 -6.39917786 8.728238 -6.421875 6.25878906 C-6.43605469 5.55753906 -6.45023437 4.85628906 -6.46484375 4.13378906 C-5.96863265 0.09681738 -3.44917853 0.00711672 0 0 Z " fill="#090F14" transform="translate(397.234375,343.7412109375)"/>
<path d="M0 0 C4.31945829 1.9334718 7.32225712 4.00456514 10 7.9375 C11.10418836 11.31907686 11.51428759 13.47345654 11 17 C8.69619457 21.26630636 6.22015097 24.56169055 2 27 C-2.44992859 27.79434062 -5.83650785 27.64638453 -9.8125 25.4375 C-13.23523614 21.62359402 -15.65312302 18.12462147 -16.5 12.9375 C-15.62274815 7.7836454 -13.08677856 4.8977736 -9.125 1.625 C-5.52746905 -0.24571609 -3.98569607 -0.71742529 0 0 Z " fill="#EEF3F4" transform="translate(417,224)"/>
<path d="M0 0 C8.25 0 16.5 0 25 0 C25 12 25 12 24 16 C20.18751574 16.02887236 16.3750593 16.04675492 12.5625 16.0625 C11.47388672 16.07087891 10.38527344 16.07925781 9.26367188 16.08789062 C8.22919922 16.09111328 7.19472656 16.09433594 6.12890625 16.09765625 C5.17056885 16.10289307 4.21223145 16.10812988 3.22485352 16.11352539 C1 16 1 16 0 15 C-0.07320163 12.4672235 -0.09227569 9.96896082 -0.0625 7.4375 C-0.041875 4.983125 -0.02125 2.52875 0 0 Z " fill="#12191D" transform="translate(257,113)"/>
<path d="M0 0 C0.33 0 0.66 0 1 0 C1.00423194 1.23429811 1.00846388 2.46859623 1.01282406 3.74029732 C1.11364682 33.08461703 1.21938376 62.42891481 1.33111694 91.7731948 C1.3448854 95.3903003 1.35861267 99.00740596 1.37231445 102.62451172 C1.37504276 103.34456815 1.37777106 104.06462458 1.38058204 104.8065009 C1.42457576 116.44324857 1.46523727 128.08000561 1.50465261 139.71676959 C1.54521502 151.67012261 1.58939247 163.62345839 1.63687855 175.57678592 C1.66342653 182.28530689 1.6882237 188.99382449 1.70907402 195.70236588 C1.72877477 202.02404563 1.75295709 208.3456928 1.78049088 214.66734314 C1.78979063 216.98031391 1.79749071 219.29329178 1.80341911 221.60627365 C1.29665553 240.96710537 1.29665553 240.96710537 4 260 C4.12205329 262.67540816 4.04467313 265.31961238 4 268 C3.34 268 2.68 268 2 268 C0.50272948 260.2087462 -0.28856293 252.76619009 -0.24050903 244.8381958 C-0.24221788 243.7825533 -0.24392673 242.7269108 -0.24568737 241.63927913 C-0.24895436 238.13867982 -0.23802488 234.63827665 -0.22705078 231.13769531 C-0.22648606 228.61378992 -0.22680441 226.0898842 -0.22793579 223.565979 C-0.2283897 218.15098878 -0.22275532 212.73606054 -0.21146011 207.32108307 C-0.1951403 199.49214534 -0.18999051 191.66323085 -0.18748413 183.83427796 C-0.18311715 171.12941422 -0.16983522 158.4245763 -0.15087891 145.71972656 C-0.13249422 133.38509245 -0.11835041 121.05046538 -0.10986328 108.71582031 C-0.10933783 107.95430213 -0.10881239 107.19278394 -0.10827102 106.40818945 C-0.10566076 102.58751486 -0.10313339 98.76684023 -0.10064721 94.94616556 C-0.07994578 63.29742478 -0.04459787 31.64871642 0 0 Z " fill="#22252B" transform="translate(21,191)"/>
<path d="M0 0 C5.28 0 10.56 0 16 0 C16.020625 2.43375 16.04125 4.8675 16.0625 7.375 C16.071604 8.13989746 16.08070801 8.90479492 16.09008789 9.69287109 C16.11111111 14.77777778 16.11111111 14.77777778 15 17 C12.52076199 17.02685095 10.0418116 17.04676547 7.5625 17.0625 C6.85544922 17.07087891 6.14839844 17.07925781 5.41992188 17.08789062 C3.61306441 17.09653588 1.80612397 17.05220011 0 17 C-1 16 -1 16 -1.1328125 12.91015625 C-1.12894531 11.00556641 -1.12894531 11.00556641 -1.125 9.0625 C-1.12757813 7.79535156 -1.13015625 6.52820313 -1.1328125 5.22265625 C-1 2 -1 2 0 0 Z " fill="#091011" transform="translate(351,137)"/>
<path d="M0 0 C0.66 0 1.32 0 2 0 C2 8.58 2 17.16 2 26 C-2.95 26 -7.9 26 -13 26 C-12.06742181 20.40453089 -10.70948705 17.47055402 -7.625 13 C-4.76449721 8.77383781 -2.18872051 4.63161502 0 0 Z " fill="#E7ECF0" transform="translate(406,102)"/>
<path d="M0 0 C0.33 0 0.66 0 1 0 C1.01030746 0.77070831 1.02061493 1.54141663 1.03123474 2.33547974 C1.12991186 9.65982163 1.23251441 16.98409377 1.33933926 24.308321 C1.39410281 28.07222112 1.44743873 31.83612934 1.49731445 35.60009766 C1.54565696 39.24414508 1.59800734 42.88811635 1.65294075 46.53207016 C1.67305325 47.91044042 1.69181008 49.28883126 1.70907402 50.66724014 C1.56438713 66.47873416 1.56438713 66.47873416 4 82 C4.12205329 84.67540816 4.04467313 87.31961238 4 90 C3.34 90 2.68 90 2 90 C-0.19706137 79.87804128 -0.26125385 70.05780253 -0.1953125 59.765625 C-0.19157392 58.03399826 -0.18873095 56.30236938 -0.18673706 54.57073975 C-0.17916705 50.05316134 -0.159577 45.53571526 -0.1373291 41.01818848 C-0.11672631 36.39235218 -0.10770474 31.76649413 -0.09765625 27.140625 C-0.07632365 18.09369244 -0.04226966 9.0468573 0 0 Z " fill="#1C1E25" transform="translate(21,369)"/>
<path d="M0 0 C6.11090483 -0.09945415 11.97403427 -0.0712828 18 1 C18 1.66 18 2.32 18 3 C29.55 3 41.1 3 53 3 C53 3.33 53 3.66 53 4 C47.3298371 4.02509434 41.65970794 4.04304242 35.98950195 4.05493164 C34.06859777 4.05989853 32.14769724 4.0666743 30.22680664 4.07543945 C18.108872 4.12926879 6.08728365 3.88937541 -6 3 C-6 2.67 -6 2.34 -6 2 C-4.02 1.67 -2.04 1.34 0 1 C0 0.67 0 0.34 0 0 Z " fill="#3C5C58" transform="translate(191,137)"/>
<path d="M0 0 C-5.0174257 2.43643712 -8.6509751 3.37695706 -14.32421875 3.36328125 C-14.99290482 3.36377975 -15.66159088 3.36427826 -16.35054016 3.36479187 C-17.75138348 3.36246905 -19.15223241 3.35284756 -20.55297852 3.33618164 C-22.6925994 3.31244342 -24.8309826 3.31565172 -26.97070312 3.32226562 C-38.36511449 3.27583811 -38.36511449 3.27583811 -42 1 C-38.92954549 0.0902357 -36.20049657 -0.17299981 -33 0 C-32.67 0.33 -32.34 0.66 -32 1 C-30.29436222 1.15740605 -28.58272756 1.25093392 -26.87109375 1.31640625 C-25.31938477 1.37924805 -25.31938477 1.37924805 -23.73632812 1.44335938 C-22.64771484 1.48267578 -21.55910156 1.52199219 -20.4375 1.5625 C-19.34501953 1.60568359 -18.25253906 1.64886719 -17.12695312 1.69335938 C-14.41810436 1.79982068 -11.70916008 1.90183516 -9 2 C-9 1.34 -9 0.68 -9 0 C-2.25 -1.125 -2.25 -1.125 0 0 Z " fill="#D5E0E4" transform="translate(340,481)"/>
<path d="M0 0 C0.56879883 0.14236084 1.13759766 0.28472168 1.72363281 0.43139648 C4.36640109 1.09152168 6.69869459 1.11278503 9.421875 1.09765625 C10.44667969 1.09443359 11.47148437 1.09121094 12.52734375 1.08789062 C14.12255859 1.07532227 14.12255859 1.07532227 15.75 1.0625 C16.82894531 1.05798828 17.90789062 1.05347656 19.01953125 1.04882812 C21.67974383 1.03705727 24.33984365 1.02061399 27 1 C26.67 1.66 26.34 2.32 26 3 C14.78 3 3.56 3 -8 3 C-8 2.67 -8 2.34 -8 2 C-6.865625 1.855625 -5.73125 1.71125 -4.5625 1.5625 C-1.19222799 1.38828522 -1.19222799 1.38828522 0 0 Z " fill="#D7E1E4" transform="translate(359,168)"/>
<path d="M0 0 C3.3 0 6.6 0 10 0 C9.67 0.66 9.34 1.32 9 2 C7.35 2 5.7 2 4 2 C2.515 7.445 2.515 7.445 1 13 C0.67 13 0.34 13 0 13 C0 8.71 0 4.42 0 0 Z " fill="#2C2F34" transform="translate(307,111)"/>
<path d="M0 0 C0.66 0.33 1.32 0.66 2 1 C0 4 0 4 -2.3984375 4.546875 C-9.71161605 5.04593705 -16.7176287 4.83928038 -24 4 C-24 3.67 -24 3.34 -24 3 C-22.77023437 2.95101562 -21.54046875 2.90203125 -20.2734375 2.8515625 C-18.64060434 2.77648971 -17.00779288 2.70094385 -15.375 2.625 C-14.56675781 2.5940625 -13.75851562 2.563125 -12.92578125 2.53125 C-8.24277933 2.30281088 -4.45282283 1.57561423 0 0 Z " fill="#D1D7D8" transform="translate(327,152)"/>
<path d="M0 0 C0.33 0 0.66 0 1 0 C1 1.98 1 3.96 1 6 C-3.95 6 -8.9 6 -14 6 C-13.67 4.68 -13.34 3.36 -13 2 C-12.67 2.33 -12.34 2.66 -12 3 C-9.98405418 3.23427778 -7.961526 3.41336124 -5.9375 3.5625 C-4.83277344 3.64628906 -3.72804688 3.73007813 -2.58984375 3.81640625 C-1.73519531 3.87699219 -0.88054687 3.93757812 0 4 C0 2.68 0 1.36 0 0 Z " fill="#2E3137" transform="translate(365,148)"/>
<path d="M0 0 C0.66 0 1.32 0 2 0 C2 9.57 2 19.14 2 29 C1.67 29 1.34 29 1 29 C1 20.42 1 11.84 1 3 C0.34 3 -0.32 3 -1 3 C-0.67 2.01 -0.34 1.02 0 0 Z " fill="#646D73" transform="translate(407,99)"/>
<path d="M0 0 C0.33 0 0.66 0 1 0 C1.25405147 3.95715197 1.47401788 7.9154685 1.6875 11.875 C1.76033203 13.00292969 1.83316406 14.13085938 1.90820312 15.29296875 C1.96298828 16.36933594 2.01777344 17.44570313 2.07421875 18.5546875 C2.13182373 19.54968262 2.18942871 20.54467773 2.2487793 21.56982422 C2.16668213 22.37178223 2.08458496 23.17374023 2 24 C1.01 24.66 0.02 25.32 -1 26 C-0.67 17.42 -0.34 8.84 0 0 Z " fill="#222F3C" transform="translate(454,434)"/>
<path d="M0 0 C0.66 0.33 1.32 0.66 2 1 C-1.33333333 4.33333333 -4.66666667 7.66666667 -8 11 C-8.66 10.67 -9.32 10.34 -10 10 C-8.90033225 8.70450101 -7.79508199 7.41373929 -6.6875 6.125 C-6.07261719 5.40570313 -5.45773437 4.68640625 -4.82421875 3.9453125 C-3 2 -3 2 0 0 Z " fill="#D6DBDA" transform="translate(290,304)"/>
<path d="M0 0 C0.71484375 1.671875 0.71484375 1.671875 1 4 C-0.43359375 6.578125 -0.43359375 6.578125 -2.4375 9.25 C-3.09621094 10.14203125 -3.75492187 11.0340625 -4.43359375 11.953125 C-4.95050781 12.62859375 -5.46742188 13.3040625 -6 14 C-6.33 13.34 -6.66 12.68 -7 12 C-6.07421875 9.6875 -6.07421875 9.6875 -4.6875 7 C-4.23761719 6.113125 -3.78773438 5.22625 -3.32421875 4.3125 C-2 2 -2 2 0 0 Z " fill="#151A1D" transform="translate(499,485)"/>
<path d="M0 0 C1.32 0.33 2.64 0.66 4 1 C2.02 2.98 0.04 4.96 -2 7 C-2.99 6.67 -3.98 6.34 -5 6 C-3.35 4.02 -1.7 2.04 0 0 Z " fill="#1D2023" transform="translate(398,216)"/>
<path d="M0 0 C0.33 0 0.66 0 1 0 C1.24878997 2.43694274 1.47463404 4.87238389 1.6875 7.3125 C1.79674805 8.34793945 1.79674805 8.34793945 1.90820312 9.40429688 C2.07421875 11.42578125 2.07421875 11.42578125 2 15 C1.01 15.99 0.02 16.98 -1 18 C-0.505 9.09 -0.505 9.09 0 0 Z " fill="#323B42" transform="translate(456,115)"/>
<path d="M0 0 C0.66 0.33 1.32 0.66 2 1 C-0.97 3.97 -3.94 6.94 -7 10 C-7.66 9.67 -8.32 9.34 -9 9 C-8.06725891 7.87105124 -7.12859878 6.74699124 -6.1875 5.625 C-5.66542969 4.99851563 -5.14335938 4.37203125 -4.60546875 3.7265625 C-3 2 -3 2 0 0 Z " fill="#CDD2D1" transform="translate(94,203)"/>
<path d="M0 0 C-0.33 0.99 -0.66 1.98 -1 3 C-2.98 3.33 -4.96 3.66 -7 4 C-7 4.66 -7 5.32 -7 6 C-8.32 5.34 -9.64 4.68 -11 4 C-9.5437455 3.32880451 -8.08492133 2.66318193 -6.625 2 C-5.81289063 1.62875 -5.00078125 1.2575 -4.1640625 0.875 C-2 0 -2 0 0 0 Z " fill="#BBC1BF" transform="translate(430,260)"/>
<path d="M0 0 C1.125 1.625 1.125 1.625 2 4 C1.25 7.1875 1.25 7.1875 0 10 C-0.99 10.495 -0.99 10.495 -2 11 C-1 3.57142857 -1 3.57142857 0 0 Z " fill="#5F6161" transform="translate(24,99)"/>
<path d="M0 0 C2.05078125 0.03255208 4.1015625 0.06510417 6.15234375 0.09765625 C6.48234375 0.75765625 6.81234375 1.41765625 7.15234375 2.09765625 C1.73695913 3.32842548 1.73695913 3.32842548 -1.22265625 2.16015625 C-1.75890625 1.80953125 -2.29515625 1.45890625 -2.84765625 1.09765625 C-1.84765625 0.09765625 -1.84765625 0.09765625 0 0 Z " fill="#B9C1C3" transform="translate(300.84765625,480.90234375)"/>
<path d="M0 0 C-7.28571429 3.42857143 -7.28571429 3.42857143 -12 3 C-11.01 2.67 -10.02 2.34 -9 2 C-9 1.34 -9 0.68 -9 0 C-2.25 -1.125 -2.25 -1.125 0 0 Z " fill="#A1ADB1" transform="translate(340,481)"/>
<path d="M0 0 C3.2542015 2.83430453 4.5206753 4.68607774 5 9 C4.34 9 3.68 9 3 9 C0 3.375 0 3.375 0 0 Z " fill="#1B1E25" transform="translate(32,481)"/>
<path d="M0 0 C1.98 0 3.96 0 6 0 C4.35830472 2.02054804 2.69088222 4.02043058 1 6 C0.67 6 0.34 6 0 6 C0 4.02 0 2.04 0 0 Z " fill="#EEEFF2" transform="translate(127,451)"/>
<path d="M0 0 C0 3.51716303 -0.82445585 4.37121748 -3 7 C-4.32 6.67 -5.64 6.34 -7 6 C-4.69 4.02 -2.38 2.04 0 0 Z " fill="#2D373E" transform="translate(444,268)"/>
<path d="M0 0 C0.66 0 1.32 0 2 0 C2 3.96 2 7.92 2 12 C1.67 12 1.34 12 1 12 C1 9.03 1 6.06 1 3 C0.34 3 -0.32 3 -1 3 C-0.67 2.01 -0.34 1.02 0 0 Z " fill="#42484E" transform="translate(407,99)"/>
</svg>
